<svg width="198" height="36" viewBox="0 0 198 36" fill="none" xmlns="http://www.w3.org/2000/svg">
<path d="M12.9496 0H23.0504C26.9352 0 30.0432 1.03597 32.3741 3.36691C34.705 5.69784 35.741 8.80576 35.741 12.6906V23.0504C35.741 26.9353 34.705 30.0432 32.3741 32.3741C30.0432 34.705 26.9352 35.741 23.0504 35.741H12.9496C9.06475 35.741 5.95683 34.705 3.6259 32.3741C1.03597 30.3022 0 27.1942 0 23.3094V12.9496C0 9.06475 1.03597 5.95683 3.36691 3.6259C5.69784 1.03597 9.06475 0 12.9496 0Z" fill="#FF4D4D"/>
<path d="M184.403 2.58993C187.77 2.58993 190.101 3.36691 191.914 5.43885C193.727 7.2518 194.763 9.84173 194.763 12.9496V23.3094C194.763 26.6763 193.986 29.0072 191.914 30.8201C190.101 32.6331 187.511 33.6691 184.403 33.6691H174.302C170.935 33.6691 168.604 32.8921 166.791 30.8201C164.978 29.0072 163.943 26.4173 163.943 23.3094V12.9496C163.943 9.58273 164.719 7.2518 166.791 5.43885C168.604 3.36691 171.194 2.58993 174.302 2.58993H184.403ZM184.403 0H174.302C170.417 0 167.309 1.03597 164.978 3.36691C162.648 5.69784 161.612 8.80576 161.612 12.6906V23.0504C161.612 26.9353 162.648 30.0432 164.978 32.3741C167.309 34.705 170.417 35.741 174.302 35.741H184.403C188.288 35.741 191.396 34.705 193.727 32.3741C196.058 30.0432 197.094 26.9353 197.094 23.0504V12.9496C197.094 9.06475 196.058 5.95683 193.727 3.6259C191.655 1.03597 188.547 0 184.403 0Z" fill="#FF4D4D"/>
<path d="M144 2.58993C147.367 2.58993 149.698 3.36691 151.511 5.43885C153.324 7.2518 154.36 9.84173 154.36 12.9496V23.3094C154.36 26.6763 153.583 29.0072 151.511 30.8201C149.698 32.6331 147.108 33.6691 144 33.6691H133.899C130.532 33.6691 128.202 32.8921 126.389 30.8201C124.576 29.0072 123.54 26.4173 123.54 23.3094V12.9496C123.54 9.58273 124.317 7.2518 126.389 5.43885C128.202 3.36691 130.791 2.58993 133.899 2.58993H144ZM144 0H133.899C130.014 0 126.907 1.03597 124.576 3.36691C122.245 5.69784 121.209 8.80576 121.209 12.6906V23.0504C121.209 26.9353 122.245 30.0432 124.576 32.3741C126.907 34.705 130.014 35.741 133.899 35.741H144C147.885 35.741 150.993 34.705 153.324 32.3741C155.655 30.0432 156.691 26.9353 156.691 23.0504V12.9496C156.691 9.06475 155.655 5.95683 153.324 3.6259C151.252 1.03597 148.144 0 144 0Z" fill="#FF4D4D"/>
<path d="M103.856 2.58993C107.223 2.58993 109.554 3.36691 111.367 5.43885C113.18 7.2518 113.957 9.58273 113.957 12.9496V23.3094C113.957 26.6763 113.18 29.0072 111.108 30.8201C109.295 32.6331 106.705 33.6691 103.597 33.6691H93.4965C90.1296 33.6691 87.7986 32.8921 85.9857 30.8201C84.1727 29.0072 83.1368 26.4173 83.1368 23.3094V12.9496C83.1368 9.58273 83.9137 7.2518 85.9857 5.43885C87.7986 3.36691 90.3886 2.58993 93.7555 2.58993H103.856ZM103.856 0H93.7555C89.8706 0 86.7627 1.03597 84.4317 3.36691C82.1008 5.69784 81.0648 8.80576 81.0648 12.6906V23.0504C81.0648 26.9353 82.1008 30.0432 84.4317 32.3741C86.7627 34.705 89.8706 35.741 93.7555 35.741H103.856C107.741 35.741 110.849 34.705 113.18 32.3741C115.511 30.3022 116.547 27.1942 116.547 23.3094V12.9496C116.547 9.06475 115.511 5.95683 113.18 3.6259C110.849 1.03597 107.741 0 103.856 0Z" fill="#FF4D4D"/>
<path d="M63.4532 2.58993C66.8201 2.58993 69.151 3.36691 70.964 5.43885C72.7769 7.2518 73.8129 9.84173 73.8129 12.9496V23.3094C73.8129 26.6763 73.0359 29.0072 70.964 30.8201C69.151 32.6331 66.5611 33.6691 63.4532 33.6691H53.3525C49.9856 33.6691 47.6546 32.8921 45.8417 30.8201C44.0287 29.0072 42.9928 26.4173 42.9928 23.3094V12.9496C42.9928 9.58273 43.7697 7.2518 45.8417 5.43885C47.3956 3.36691 49.9856 2.58993 53.3525 2.58993H63.4532ZM63.4532 0H53.3525C49.4676 0 46.3597 1.03597 44.0287 3.36691C41.4388 5.69784 40.4028 9.06475 40.4028 12.9496V23.3094C40.4028 27.1942 41.4388 30.3022 43.7697 32.6331C46.1007 34.964 49.2086 36 53.0935 36H63.1942C67.0791 36 70.187 34.964 72.5179 32.6331C74.8489 30.3022 75.8848 27.1942 75.8848 23.3094V12.9496C75.8848 9.06475 74.8489 5.95683 72.5179 3.6259C70.446 1.03597 67.3381 0 63.4532 0Z" fill="#FF4D4D"/>
</svg>
