<svg width="198" height="36" viewBox="0 0 198 36" fill="none" xmlns="http://www.w3.org/2000/svg">
<path d="M12.9376 0H23.029C26.9102 0 30.0153 1.03597 32.344 3.36691C34.6728 5.69784 35.7078 8.80576 35.7078 12.6906V23.0504C35.7078 26.9353 34.6728 30.0432 32.344 32.3741C30.0153 34.705 26.9102 35.741 23.029 35.741H12.9376C9.05633 35.741 5.9513 34.705 3.62253 32.3741C1.03501 30.3022 0 27.1942 0 23.3094V12.9496C0 9.06475 1.03501 5.95683 3.36378 3.6259C5.69255 1.03597 9.05633 0 12.9376 0Z" fill="#FF4D4D"/>
<path d="M53.303 0H63.3944C67.2757 0 70.3807 1.03597 72.7095 3.36691C75.0383 5.69784 76.332 9.06475 76.332 12.9496V23.3094C76.332 27.1942 75.297 30.3022 72.9682 32.6331C70.6395 34.964 67.5344 36 63.6531 36H53.5618C49.6805 36 46.5755 34.964 44.2467 32.6331C41.9179 30.3022 40.8829 27.1942 40.8829 23.3094V12.9496C40.8829 9.06475 41.9179 5.95683 44.2467 3.6259C46.058 1.03597 49.163 0 53.303 0Z" fill="#FF4D4D"/>
<path d="M93.6684 0H103.76C107.641 0 110.746 1.03597 113.075 3.36691C115.404 5.69784 116.439 9.06475 116.439 12.9496V23.3094C116.439 27.1942 115.404 30.3022 113.075 32.6331C110.746 34.964 107.641 36 103.76 36H93.6684C89.7871 36 86.6821 34.964 84.3533 32.6331C82.0245 30.3022 80.9895 27.1942 80.9895 23.3094V12.9496C80.9895 9.06475 82.0245 5.95683 84.3533 3.6259C86.4233 1.03597 89.5283 0 93.6684 0Z" fill="#FF4D4D"/>
<path d="M133.775 0H143.866C147.748 0 150.853 1.03597 153.182 3.36691C155.51 5.69784 156.545 8.80576 156.545 12.6906V23.0504C156.545 26.9353 155.51 30.0432 153.182 32.3741C150.853 34.705 147.748 35.741 143.866 35.741H133.775C129.894 35.741 126.789 34.705 124.46 32.3741C122.131 30.0432 121.096 26.9353 121.096 23.0504V12.9496C121.096 9.06475 122.131 5.95683 124.46 3.6259C126.789 1.03597 129.894 0 133.775 0Z" fill="#FF4D4D"/>
<path d="M193.806 3.36691C191.477 1.03597 188.372 0 184.232 0H174.14C170.259 0 167.154 1.03597 164.825 3.36691C162.497 5.69784 161.462 8.80576 161.462 12.6906V23.0504C161.462 26.9353 162.497 30.0432 164.825 32.3741C167.154 34.705 170.259 35.741 174.14 35.741H184.232C188.113 35.741 191.218 34.705 193.547 32.3741C195.876 30.0432 196.911 26.9353 196.911 23.0504V12.9496C197.169 9.06475 196.134 5.69784 193.806 3.36691ZM194.582 23.3094C194.582 26.6763 193.806 29.0072 191.736 30.8201C189.924 32.6331 187.337 33.6691 184.232 33.6691H179.057V2.58993H184.232C187.596 2.58993 189.924 3.36691 191.736 5.43885C193.547 7.2518 194.582 9.84173 194.582 12.9496V23.3094Z" fill="#FF4D4D"/>
</svg>
