<svg width="196" height="90" viewBox="0 0 196 90" fill="none" xmlns="http://www.w3.org/2000/svg">
<g clip-path="url(#clip0)">
<path d="M0 69.7L5.5 0H8.5L14 69.7H11L10.2 59.7H3.8L3 69.7H0ZM10 56.8L7 19.9L4 56.8H10Z" fill="#FF4D4D"/>
<path d="M22.9 0H31.9C33.4 0 34.6 0.4 35.5 1.3C36.4 2.2 36.8 3.4 36.8 4.9V54.7C36.8 56.2 36.4 57.4 35.5 58.3C34.6 59.2 33.4 59.6 31.9 59.6H25.9V69.6H22.9V0ZM31.9 56.8C33.2 56.8 33.9 56.1 33.9 54.8V5C33.9 3.7 33.2 3 31.9 3H25.9V56.8H31.9Z" fill="#FF4D4D"/>
<path d="M45.8 0H54.8C56.3 0 57.5 0.4 58.4 1.3C59.3 2.2 59.7 3.4 59.7 4.9V54.7C59.7 56.2 59.3 57.4 58.4 58.3C57.5 59.2 56.3 59.6 54.8 59.6H48.8V69.6H45.8V0ZM54.8 56.8C56.1 56.8 56.8 56.1 56.8 54.8V5C56.8 3.7 56.1 3 54.8 3H48.8V56.8H54.8Z" fill="#FF4D4D"/>
<path d="M82.6 0V3H71.6V10H79.6V13H71.6V66.8H82.6V69.8H68.7V0H82.6Z" fill="#FF4D4D"/>
<path d="M85.6 0H99.5V3H94V69.7H91V3H85.5V0H85.6Z" fill="#FF4D4D"/>
<path d="M106 69.7V0H109V69.7H106Z" fill="#FF4D4D"/>
<path d="M115.5 0H129.4V3H124V69.7H121V3H115.5V0Z" fill="#FF4D4D"/>
<path d="M135.4 64.7V5.00001C135.4 3.50001 135.8 2.30001 136.7 1.40001C137.6 0.500006 138.8 0.100006 140.3 0.100006H144.3C145.8 0.100006 147 0.500006 147.9 1.40001C148.8 2.30001 149.2 3.50001 149.2 5.00001V64.7C149.2 66.2 148.8 67.4 147.9 68.3C147 69.2 145.8 69.6 144.3 69.6H140.3C138.8 69.6 137.6 69.2 136.7 68.3C135.9 67.5 135.4 66.2 135.4 64.7ZM140.4 66.7H144.4C145.7 66.7 146.4 66 146.4 64.7V5.00001C146.4 3.70001 145.7 3.00001 144.4 3.00001H140.4C139.1 3.00001 138.4 3.70001 138.4 5.00001V64.7C138.4 66 139.1 66.7 140.4 66.7Z" fill="#FF4D4D"/>
<path d="M158.3 5.00001C158.3 3.50001 158.7 2.30001 159.6 1.40001C160.5 0.500006 161.7 0.100006 163.2 0.100006H167.2C168.7 0.100006 169.9 0.500006 170.8 1.40001C171.7 2.30001 172.1 3.50001 172.1 5.00001V6.00001H169.1V5.00001C169.1 3.70001 168.4 3.00001 167.1 3.00001H163.1C161.8 3.00001 161.1 3.70001 161.1 5.00001V6.00001L172.1 63.7V64.7C172.1 66.2 171.7 67.4 170.8 68.3C169.9 69.2 168.7 69.6 167.2 69.6H163.2C161.7 69.6 160.5 69.2 159.6 68.3C158.7 67.4 158.3 66.2 158.3 64.7V63.7H161.3V64.7C161.3 66 162 66.7 163.3 66.7H167.3C168.6 66.7 169.3 66 169.3 64.7V63.7L158.3 6.00001V5.00001Z" fill="#FF4D4D"/>
<path d="M181.2 64.7V5.00001C181.2 3.50001 181.6 2.30001 182.5 1.40001C183.4 0.500006 184.6 0.100006 186.1 0.100006H190.1C191.6 0.100006 192.8 0.500006 193.7 1.40001C194.6 2.30001 195 3.50001 195 5.00001V64.7C195 66.2 194.6 67.4 193.7 68.3C192.8 69.2 191.6 69.6 190.1 69.6H186.1C184.6 69.6 183.4 69.2 182.5 68.3C181.7 67.5 181.2 66.2 181.2 64.7ZM186.2 66.7H190.2C191.5 66.7 192.2 66 192.2 64.7V5.00001C192.2 3.70001 191.5 3.00001 190.2 3.00001H186.2C184.9 3.00001 184.2 3.70001 184.2 5.00001V64.7C184.2 66 184.9 66.7 186.2 66.7Z" fill="#FF4D4D"/>
<path d="M5 75.6H190.2C191.7 75.6 192.9 76 193.8 76.9C194.7 77.8 195.1 79 195.1 80.5V84.5C195.1 86 194.7 87.2 193.8 88.1C192.9 89 191.7 89.4 190.2 89.4H5C3.5 89.4 2.3 89 1.4 88.1C0.4 87.3 0 86.1 0 84.6V80.6C0 79.1 0.4 77.9 1.3 77C2.2 76.1 3.5 75.6 5 75.6ZM3 80.6V84.6C3 85.9 3.7 86.6 5 86.6H190.2C191.5 86.6 192.2 85.9 192.2 84.6V80.6C192.2 79.3 191.5 78.6 190.2 78.6H5C3.6 78.6 3 79.3 3 80.6Z" fill="#FF4D4D"/>
</g>
<defs>
<clipPath id="clip0">
<rect width="195.1" height="89.6" fill="white"/>
</clipPath>
</defs>
</svg>
