<svg width="49" height="48" viewBox="0 0 49 48" fill="none" xmlns="http://www.w3.org/2000/svg">
<path d="M17.9451 0H31.4778C36.6331 0 40.8862 1.55676 43.8505 4.67027C46.9437 7.78378 48.4903 11.9351 48.4903 17.1243V30.8757C48.4903 36.0649 46.9437 40.3459 43.8505 43.3297C40.7573 46.4432 36.6331 48 31.4778 48H17.9451C12.6609 48 8.53669 46.4432 5.5724 43.3297C2.47922 40.2162 0.932617 36.0649 0.932617 30.8757V17.1243C0.932617 11.8054 2.47922 7.65405 5.5724 4.67027C8.53669 1.55676 12.6609 0 17.9451 0Z" fill="#8A0C4D"/>
<path d="M29.9313 25.4271V24.2595L29.158 25.4271H29.9313Z" fill="#FDFDFD"/>
<path d="M25.8069 22.4434C25.4202 22.4434 25.0337 22.5731 24.9048 22.8326C24.7759 23.092 24.5181 23.4812 24.5181 24.0001C24.5181 24.519 24.647 24.9082 24.9048 25.1677C25.1625 25.4271 25.4202 25.5569 25.8069 25.5569C26.1935 25.5569 26.4513 25.4271 26.7091 25.1677C26.9668 24.9082 27.0957 24.519 27.0957 23.8704C27.0957 23.3515 26.9668 22.9623 26.7091 22.7028C26.5802 22.5731 26.3224 22.4434 25.8069 22.4434Z" fill="#FDFDFD"/>
<path d="M34.1842 29.8379C33.7976 29.8379 33.411 29.9677 33.0244 30.0974L30.9622 28.0217C31.7355 26.8542 32.1222 25.5569 32.1222 24.0001C32.1222 22.5731 31.7355 21.146 30.9622 19.9785L33.0244 17.9028C33.411 18.0325 33.7976 18.1623 34.1842 18.1623C36.2464 18.1623 37.9219 16.4758 37.9219 14.4001C37.9219 12.3244 36.2464 10.6379 34.1842 10.6379C32.1221 10.6379 30.4467 12.3244 30.4467 14.4001C30.4467 14.7893 30.5756 15.1785 30.7045 15.5677L28.6423 17.6433C27.4824 16.865 26.1936 16.4758 24.647 16.4758C23.2293 16.4758 21.8115 16.865 20.6516 17.6433L18.5895 15.5677C18.7184 15.1785 18.8473 14.7893 18.8473 14.4001C18.8473 12.3244 17.1718 10.6379 15.1097 10.6379C13.0475 10.6379 11.3721 12.3244 11.3721 14.4001C11.3721 16.4758 13.0475 18.1623 15.1097 18.1623C15.4963 18.1623 15.883 18.0325 16.2696 17.9028L18.3317 19.9785C17.5584 21.146 17.1718 22.4433 17.1718 24.0001C17.1718 25.4271 17.5584 26.8542 18.3317 28.0217L16.2696 30.0974C15.883 29.9677 15.4963 29.8379 15.1097 29.8379C13.0475 29.8379 11.3721 31.5244 11.3721 33.6001C11.3721 35.6758 13.0475 37.3623 15.1097 37.3623C17.1718 37.3623 18.8473 35.6758 18.8473 33.6001C18.8473 33.2109 18.7184 32.8217 18.5895 32.4325L20.6516 30.3569C21.8115 31.1352 23.1004 31.5244 24.647 31.5244C26.0647 31.5244 27.4824 31.1352 28.6423 30.3569L30.7045 32.4325C30.5756 32.8217 30.4467 33.2109 30.4467 33.6001C30.4467 35.6758 32.1221 37.3623 34.1842 37.3623C36.2464 37.3623 37.9219 35.6758 37.9219 33.6001C37.9219 31.5244 36.2464 29.8379 34.1842 29.8379ZM22.7138 25.8163C22.5849 26.0758 22.3271 26.2055 22.0693 26.3352C21.8116 26.465 21.4249 26.465 21.0383 26.465C20.3939 26.465 20.0072 26.3352 19.6205 26.0758C19.3628 25.8163 19.105 25.4271 19.105 24.9082L20.0072 24.7785C20.0072 25.0379 20.1361 25.2974 20.3939 25.4271C20.5228 25.5569 20.7805 25.6866 21.0383 25.6866C21.2961 25.6866 21.5538 25.5569 21.6827 25.4271C21.8116 25.2974 21.9404 25.1677 21.9404 24.9082C21.9404 24.7785 21.9404 24.6487 21.8116 24.6487C21.6827 24.519 21.6827 24.519 21.4249 24.3893C21.296 24.3893 21.0382 24.2596 20.6516 24.1298C20.1361 24.0001 19.7494 23.8704 19.6205 23.6109C19.3628 23.3515 19.2339 23.092 19.2339 22.7028C19.2339 22.4433 19.3628 22.1839 19.4917 22.0542C19.6206 21.7947 19.8783 21.665 20.1361 21.5352C20.3939 21.4055 20.6516 21.4055 21.0383 21.4055C21.6827 21.4055 22.0694 21.5352 22.3271 21.7947C22.5849 22.0542 22.8426 22.4433 22.8426 22.8325H21.9404C21.9404 22.5731 21.8116 22.4433 21.6827 22.3136C21.5538 22.1839 21.2961 22.1839 21.0383 22.1839C20.7805 22.1839 20.5228 22.1839 20.3939 22.3136C20.265 22.4433 20.265 22.4433 20.265 22.5731C20.265 22.7028 20.265 22.8325 20.3939 22.8325C20.5228 22.9623 20.7805 23.092 21.296 23.092C21.8115 23.2217 22.0694 23.3515 22.3271 23.4812C22.5849 23.6109 22.7137 23.7406 22.8426 24.0001C22.9715 24.2596 22.9715 24.519 22.9715 24.7785C22.9715 25.2974 22.8426 25.5569 22.7138 25.8163ZM27.4824 25.946C27.0958 26.3352 26.4513 26.5947 25.8069 26.5947C25.1625 26.5947 24.5181 26.3352 24.1314 25.946C23.7448 25.5569 23.487 24.9082 23.487 24.1298C23.487 23.6109 23.6159 23.2217 23.7448 22.9623C23.8737 22.7028 24.0025 22.4433 24.1314 22.3136C24.2603 22.1839 24.5181 21.9244 24.7758 21.9244C25.0336 21.7947 25.4202 21.7947 25.8069 21.7947C26.4513 21.7947 27.0958 22.0542 27.4824 22.4433C27.8691 22.8325 28.1268 23.4812 28.1268 24.2596C28.1268 24.9082 27.998 25.4271 27.4824 25.946ZM30.5756 26.0758V26.7244H29.9311V26.0758H28.5135V25.5569L30.0601 23.3515H30.5756V25.5569H30.9622V26.2055H30.5756V26.0758Z" fill="#FDFDFD"/>
</svg>
