<svg width="48" height="48" viewBox="0 0 48 48" fill="none" xmlns="http://www.w3.org/2000/svg">
<path d="M17.4354 0H30.968C36.1234 0 40.3765 1.55676 43.3408 4.67027C46.434 7.78378 47.9805 11.9351 47.9805 17.1243V30.8757C47.9805 36.0649 46.434 40.3459 43.3408 43.3297C40.2476 46.4432 36.1234 48 30.968 48H17.4354C12.1512 48 8.02693 46.4432 5.06263 43.3297C1.96945 40.2162 0.422852 36.0649 0.422852 30.8757V17.1243C0.422852 11.8054 1.96945 7.65405 5.06263 4.67027C8.02693 1.55676 12.1512 0 17.4354 0Z" fill="#C99B2D"/>
<path d="M29.6792 14.919V12.4541C29.6792 11.8055 29.1637 11.4163 28.6481 11.4163H25.9416L25.2972 8.69195C25.1684 8.17303 24.7817 7.91357 24.2662 7.91357C23.7506 7.91357 23.364 8.30276 23.2351 8.82168L22.7196 11.546H19.8842C19.2398 11.546 18.8531 12.0649 18.8531 12.5838V15.0487C18.3376 15.1784 17.9509 15.5676 17.9509 16.0865V39.3082C17.9509 39.9568 18.4664 40.346 18.982 40.346H29.6792C30.3236 40.346 30.7103 39.8271 30.7103 39.3082V15.9568C30.5814 15.4379 30.1948 15.0487 29.6792 14.919ZM20.7864 13.492H27.4882V14.919H20.7864V13.492ZM28.3904 38.1406H19.8842V16.9947H28.3904V38.1406Z" fill="white"/>
</svg>
