<svg width="48" height="48" viewBox="0 0 48 48" fill="none" xmlns="http://www.w3.org/2000/svg">
<path d="M17.2869 0H30.8196C35.9749 0 40.228 1.55676 43.1923 4.67027C46.2855 7.78378 47.8321 11.9351 47.8321 17.1243V30.8757C47.8321 36.0649 46.2855 40.3459 43.1923 43.3297C40.0991 46.4432 35.9749 48 30.8196 48H17.2869C12.0027 48 7.87849 46.4432 4.91419 43.3297C1.82101 40.2162 0.274414 36.0649 0.274414 30.8757V17.1243C0.274414 11.8054 1.82101 7.65405 4.91419 4.67027C8.00737 1.55676 12.1316 0 17.2869 0Z" fill="#00A649"/>
<path d="M33.1394 21.5351C34.686 18.9405 34.1705 15.5675 31.9795 13.2324L28.6285 9.85942C27.8552 9.08104 26.8242 9.08104 26.0509 9.85942L22.5711 13.3621C20.8956 15.0486 20.2512 17.5135 20.8956 19.8486C21.0245 20.1081 20.8956 20.4973 20.7667 20.627C19.4779 21.7946 18.7046 23.6108 18.7046 25.2973C15.9981 26.2054 14.0648 28.8 14.0648 31.654V36.5837C14.0648 37.6216 14.8381 38.4 15.8692 38.4H20.6378C23.6021 38.4 26.1798 36.5837 27.0819 33.8594C27.3397 33.2108 27.4686 32.5621 27.4686 31.7837C30.1751 30.8756 32.1083 28.281 32.1083 25.427C32.1083 24.7783 31.9795 24.1297 31.8506 23.481C31.7217 23.2216 31.8506 22.8324 32.1083 22.7027C32.495 22.5729 32.8816 22.054 33.1394 21.5351ZM20.5089 34.8973C18.9623 34.8973 17.8024 33.7297 17.8024 32.1729C17.8024 30.6162 18.9623 29.4486 20.5089 29.4486C22.0555 29.4486 23.2155 30.6162 23.2155 32.1729C23.2155 33.7297 21.9266 34.8973 20.5089 34.8973ZM25.922 28.5405C24.3754 28.5405 23.2155 27.3729 23.2155 25.8162C23.2155 24.2594 24.3754 23.0919 25.922 23.0919C27.4686 23.0919 28.6285 24.2594 28.6285 25.8162C28.6285 27.3729 27.3397 28.5405 25.922 28.5405ZM27.7264 20.3675C26.1798 20.3675 25.0198 19.2 25.0198 17.6432C25.0198 16.0864 26.1798 14.9189 27.7264 14.9189C29.2729 14.9189 30.4329 16.0864 30.4329 17.6432C30.4329 19.2 29.2729 20.3675 27.7264 20.3675Z" fill="#FDFDFD"/>
</svg>
