<svg width="49" height="48" viewBox="0 0 49 48" fill="none" xmlns="http://www.w3.org/2000/svg">
<path d="M17.5418 0H31.0744C36.2297 0 40.4829 1.55676 43.4472 4.67027C46.5403 7.78378 48.0869 11.9351 48.0869 17.1243V30.8757C48.0869 36.0649 46.5403 40.3459 43.4472 43.3297C40.354 46.4432 36.2297 48 31.0744 48H17.5418C12.2576 48 8.13334 46.4432 5.16904 43.3297C2.07586 40.2162 0.529297 36.0649 0.529297 30.8757V17.1243C0.529297 11.8054 2.07586 7.65405 5.16904 4.67027C8.26222 1.55676 12.3865 0 17.5418 0Z" fill="#7B401E"/>
<path d="M31.2033 18.2919L27.9812 11.9352V10.5081H28.1101C28.3679 10.5081 28.6256 10.2487 28.6256 9.98922V7.78381C28.6256 7.52435 28.3679 7.26489 28.1101 7.26489H20.5061C20.2483 7.26489 19.9905 7.52435 19.9905 7.78381V9.85949C19.9905 10.1189 20.2483 10.3784 20.5061 10.3784H20.6349V11.8054L17.4128 18.1622C17.0262 18.9406 16.7684 20.2379 16.7684 21.146V38.5298C16.7684 39.5676 17.6706 40.4757 18.7017 40.4757H29.9145C30.9455 40.4757 31.8477 39.5676 31.8477 38.5298V21.2757C31.8477 20.3676 31.5899 19.0703 31.2033 18.2919ZM21.0216 8.43246H27.5946V9.4703H21.0216V8.43246ZM21.666 12.3244C21.666 12.1946 21.666 12.1946 21.666 12.0649V10.5081H26.8213V12.0649C26.8213 12.1946 26.8213 12.1946 26.8213 12.3244L28.8834 16.346C28.4968 16.4757 28.239 16.7352 27.9812 16.8649C27.7235 17.1244 27.4657 17.2541 26.9502 17.2541C26.4346 17.2541 26.1769 17.1244 25.9191 16.8649C25.5324 16.6054 25.1458 16.2162 24.2436 16.2162C23.3415 16.2162 22.9548 16.6054 22.5681 16.8649C22.3104 17.1244 22.0526 17.2541 21.5371 17.2541C21.0216 17.2541 20.7638 17.1244 20.5061 16.8649C20.2483 16.7352 19.9905 16.4757 19.6039 16.346L21.666 12.3244ZM30.8166 38.6595C30.8166 39.1784 30.43 39.5676 29.9145 39.5676H18.7017C18.1861 39.5676 17.7995 39.1784 17.7995 38.6595V21.2757C17.7995 20.6271 18.0573 19.4595 18.315 18.8108L19.0883 17.2541C19.3461 17.2541 19.6039 17.5135 19.8616 17.6433C20.2483 17.9027 20.6349 18.2919 21.5371 18.2919C22.4393 18.2919 22.8259 17.9027 23.2126 17.6433C23.4703 17.3838 23.7281 17.2541 24.2436 17.2541C24.7592 17.2541 25.0169 17.3838 25.2747 17.6433C25.6613 17.9027 26.048 18.2919 26.9502 18.2919C27.8523 18.2919 28.239 17.9027 28.6256 17.6433C28.8834 17.5135 29.0123 17.3838 29.3989 17.2541L30.1722 18.8108C30.43 19.4595 30.6878 20.4973 30.6878 21.2757V38.6595H30.8166Z" fill="#FDFDFD"/>
<path d="M19.475 35.2866C19.2172 35.2866 18.9595 35.5461 18.9595 35.8055V37.8812C18.9595 38.1407 19.2172 38.4001 19.475 38.4001C19.7328 38.4001 19.9905 38.1407 19.9905 37.8812V35.8055C19.9905 35.5461 19.7328 35.2866 19.475 35.2866Z" fill="#FDFDFD"/>
<path d="M20.1194 19.0704C19.8616 18.9407 19.6039 19.0704 19.3461 19.3299C19.0883 19.8488 18.8306 20.7569 18.8306 21.2758V33.7299C18.8306 33.9893 19.0883 34.2488 19.3461 34.2488C19.6039 34.2488 19.8617 33.9893 19.8617 33.7299V21.2758C19.8617 20.8866 19.9905 20.1083 20.2483 19.8488C20.5061 19.4596 20.3772 19.2002 20.1194 19.0704Z" fill="#FDFDFD"/>
<path d="M23.3414 12.5837H25.2747C25.5324 12.5837 25.7902 12.3243 25.7902 12.0648C25.7902 11.8054 25.5324 11.5459 25.2747 11.5459H23.3414C23.0837 11.5459 22.8259 11.8054 22.8259 12.0648C22.8259 12.3243 23.0837 12.5837 23.3414 12.5837Z" fill="#FDFDFD"/>
</svg>
