<svg width="49" height="48" viewBox="0 0 49 48" fill="none" xmlns="http://www.w3.org/2000/svg">
<path d="M17.6902 0H31.2229C36.3782 0 40.6313 1.55676 43.5956 4.67027C46.6888 7.78378 48.2354 11.9351 48.2354 17.1243V30.8757C48.2354 36.0649 46.6888 40.3459 43.5956 43.3297C40.5024 46.4432 36.3782 48 31.2229 48H17.6902C12.406 48 8.28181 46.4432 5.31751 43.3297C2.22433 40.2162 0.677734 36.0649 0.677734 30.8757V17.1243C0.677734 11.8054 2.22433 7.65405 5.31751 4.67027C8.28181 1.55676 12.406 0 17.6902 0Z" fill="#A9997D"/>
<path d="M16.9168 10.1191C16.9168 10.1191 15.3702 11.8056 12.7926 16.2164C10.2149 20.4975 11.6326 32.9516 16.2724 36.0651C17.3035 32.3029 18.85 23.3516 16.9168 10.1191Z" fill="white"/>
<path d="M24.1342 19.7191C23.2321 13.7515 19.7522 12.3245 18.0768 9.85962C20.01 23.7407 18.4634 32.9515 17.3035 36.9731C17.6901 37.2326 17.9479 37.3623 18.3345 37.492C25.1653 39.8272 25.0364 25.038 24.1342 19.7191Z" fill="white"/>
<path d="M34.8314 12.1949C34.8314 12.1949 34.8314 12.0651 34.8314 12.1949C34.8314 12.1949 32.6404 12.8435 28.2584 15.5678C24.0053 18.1624 19.1078 29.7084 21.8143 34.6381C24.5208 31.6543 30.0628 24.7786 34.8314 12.1949Z" fill="white"/>
<path d="M36.507 24.1299C38.4402 18.4218 36.2492 15.5678 35.8626 12.584C30.9651 25.6867 25.1653 32.9515 22.201 35.9353C22.3299 36.3245 22.5877 36.584 22.8455 36.8434C27.743 42.1624 34.7026 29.0597 36.507 24.1299Z" fill="white"/>
</svg>
