<svg width="48" height="48" viewBox="0 0 48 48" fill="none" xmlns="http://www.w3.org/2000/svg">
<path d="M17.2674 0H30.8C35.9553 0 40.2085 1.55676 43.1728 4.67027C46.2659 7.78378 47.8125 11.9351 47.8125 17.1243V30.8757C47.8125 36.0649 46.2659 40.3459 43.1728 43.3297C40.0796 46.4432 35.9553 48 30.8 48H17.2674C11.9832 48 7.85895 46.4432 4.89465 43.3297C1.80147 40.2162 0.254883 36.0649 0.254883 30.8757V17.1243C0.254883 11.8054 1.80147 7.65405 4.89465 4.67027C7.85895 1.55676 12.1121 0 17.2674 0Z" fill="#00AEF1"/>
<path d="M41.2395 23.3514C41.2395 23.3514 41.2395 23.2217 41.2395 23.3514C41.2395 23.2217 41.2395 23.2217 41.2395 23.3514C41.2395 23.2217 41.2395 23.2217 41.2395 23.3514C41.2395 23.2217 41.2395 23.2217 41.2395 23.3514C41.2395 23.2217 41.2395 23.2217 41.2395 23.3514C41.1106 23.2217 41.1106 23.2217 41.2395 23.3514C41.1106 23.2217 41.1106 23.2217 41.2395 23.3514C41.1106 23.2217 41.1106 23.2217 41.2395 23.3514C41.1106 23.2217 41.1106 23.2217 41.1106 23.2217L40.9817 23.3514C40.9817 23.3514 40.9817 23.3514 40.9817 23.4811C40.8528 23.6109 40.8528 23.8703 40.7239 24C40.595 24.1298 40.5951 24.3892 40.4662 24.519C40.3373 24.6487 40.2084 24.7784 40.2084 24.9082V25.0379C40.0795 25.0379 39.9506 25.0379 39.8218 25.1676C39.6929 25.2973 39.564 25.4271 39.3062 25.4271C39.1773 25.5568 38.9196 25.5568 38.7907 25.6865C38.6618 25.8163 38.5329 25.8163 38.4041 25.946C38.4041 25.8163 38.2752 25.8163 38.1463 25.8163C38.0174 25.8163 37.7596 25.8163 37.6307 25.946C37.2441 25.946 36.8575 26.0757 36.4708 26.2055H36.3419H36.213C36.213 26.2055 36.0842 26.2054 36.0842 26.3352C36.0842 26.3352 35.9553 26.3352 35.9553 26.4649C35.8264 26.4649 35.8264 26.4649 35.8264 26.3352C35.6975 26.3352 35.6975 26.3352 35.5686 26.2055C35.3109 26.0757 35.0531 25.946 34.7953 25.8163H34.6665H34.5376C34.4087 25.8163 34.4087 25.8163 34.2798 25.8163C34.2798 25.8163 34.2798 25.8163 34.1509 25.8163C34.1509 25.8163 34.1509 25.8163 34.2798 25.8163L34.4087 25.6865C34.5376 25.6865 34.5376 25.5568 34.6665 25.5568C34.9242 25.4271 35.0531 25.4271 35.3109 25.2973C35.4398 25.2973 35.5686 25.2973 35.6975 25.1676C35.8264 25.1676 35.9553 25.1676 35.9553 25.0379L35.8264 24.9082C35.6975 24.9082 35.5686 24.9082 35.5686 24.9082H35.4398C35.3109 24.9082 35.0531 24.9082 34.9242 24.9082C34.7953 24.9082 34.6665 24.9082 34.5376 24.9082C34.6665 24.7784 34.7953 24.7784 35.0531 24.6487C35.4397 24.519 35.8264 24.2595 36.213 24C36.3419 24 36.4708 23.8703 36.5997 23.8703C36.7286 23.8703 36.7286 23.7406 36.8575 23.7406C36.8575 23.7406 36.9863 23.7406 36.9863 23.6109C37.1152 23.6109 37.2441 23.6109 37.373 23.6109C37.6308 23.4811 38.0174 23.3514 38.2752 23.3514C38.404 23.3514 38.5329 23.2217 38.5329 23.2217C38.6618 23.0919 38.6618 23.0919 38.6618 22.9622V22.8325L38.7907 22.9622H38.9196C38.9196 22.9622 38.9196 22.9622 39.0485 22.9622C39.1773 22.8325 39.4351 22.8325 39.564 22.7027C39.9506 22.573 40.2084 22.3136 40.4662 22.0541C40.5951 21.9244 40.595 21.6649 40.7239 21.5352C40.7239 21.4054 40.8528 21.4054 40.8528 21.2757C40.8528 21.2757 40.8528 21.2757 40.8528 21.146C40.9817 20.8865 41.2395 20.7568 41.2395 20.4973C41.2395 20.4973 41.2395 20.4973 41.2395 20.3676C41.2395 20.3676 41.2395 20.3676 41.2395 20.2379C41.2395 20.2379 41.2395 20.2379 41.2395 20.1082C41.2395 20.1082 41.2395 20.1082 41.2395 19.9784C41.2395 19.719 41.2395 19.5892 41.2395 19.3298C41.2395 19.0703 41.2395 18.9406 41.2395 18.6811C41.2395 18.5514 41.2395 18.5514 41.2395 18.4217C41.2395 18.2919 41.2395 18.2919 41.2395 18.1622C41.2395 18.0325 41.1106 17.773 41.1106 17.6433C41.1106 17.5136 40.9817 17.3838 40.9817 17.2541C40.8528 16.9946 40.8528 16.8649 40.8528 16.7352C40.8528 16.6054 40.7239 16.346 40.5951 16.346C40.5951 16.4757 40.4662 16.7352 40.4662 16.8649C40.4662 17.1244 40.4662 17.2541 40.3373 17.5136C40.3373 17.773 40.4662 17.9027 40.3373 18.0325C40.2084 18.2919 40.2084 18.5514 40.2084 18.9406V19.0703C40.2084 19.0703 40.2084 19.0703 40.2084 19.2C40.2084 19.2 40.2084 19.2 40.2084 19.3298C40.2084 19.3298 40.2084 19.4595 40.0795 19.4595C39.9506 19.5892 39.8218 19.8487 39.6929 20.1082C39.564 20.2379 39.4351 20.4973 39.3062 20.6271C39.0485 21.0163 38.6618 21.4054 38.2752 21.5352C38.2752 21.5352 38.1463 21.5352 38.1463 21.6649C38.1463 21.6649 38.1463 21.6649 38.0174 21.6649C38.0174 21.6649 38.0174 21.6649 37.8885 21.6649C37.8885 21.6649 37.8885 21.6649 37.7596 21.6649C37.7596 21.6649 37.7596 21.6649 37.6307 21.6649C37.373 21.7946 36.9863 22.0541 36.7286 22.1838C36.5997 22.1838 36.4708 22.3136 36.4708 22.4433C36.4708 22.4433 36.4708 22.4433 36.3419 22.573C36.3419 22.573 36.3419 22.573 36.3419 22.7027C36.3419 22.7027 36.3419 22.7027 36.213 22.7027H36.0842H35.9553H35.8264C35.6975 22.7027 35.5686 22.7027 35.4398 22.8325C35.3109 22.8325 35.182 22.9622 35.0531 22.9622C34.7953 23.0919 34.4087 23.0919 34.1509 23.2217C33.6354 23.3514 33.1199 23.4811 32.6043 23.7406H32.4755C32.4755 23.7406 32.4755 23.7406 32.3466 23.7406C32.2177 23.7406 32.2177 23.6109 32.0888 23.6109C31.831 23.4811 31.7022 23.3514 31.4444 23.2217C31.3155 23.2217 31.3155 23.0919 31.1866 23.0919H31.3155C31.3155 23.0919 31.3155 23.0919 31.4444 23.0919C31.4444 23.0919 31.4444 23.0919 31.5733 23.0919H31.7022H31.831C31.9599 23.0919 32.0888 22.9622 32.0888 22.9622C32.2177 22.8325 32.4755 22.8325 32.6043 22.7027C32.7332 22.573 32.8621 22.4433 32.991 22.3136C33.1199 22.3136 33.1199 22.1838 33.2488 22.1838C33.3776 22.0541 33.5065 22.0541 33.6354 22.0541H33.7643V21.9244C33.7643 21.9244 33.7643 21.9244 33.8932 21.9244H34.022C34.1509 21.9244 34.1509 21.9244 34.1509 21.9244C34.1509 21.9244 34.2798 21.7946 34.2798 21.6649C34.4087 21.5352 34.4087 21.2757 34.5376 21.0163C34.6665 20.6271 34.7953 20.3676 34.7953 20.1082C34.7953 19.8487 34.6665 19.5892 34.7953 19.3298C34.7953 19.2 34.9242 19.2 34.9242 19.0703C34.9242 18.9406 34.9242 18.9406 34.9242 18.8109H34.7953V18.6811C34.7953 18.5514 34.7953 18.4217 34.7953 18.2919C34.7953 18.1622 34.7953 18.0325 34.7953 17.9027C34.7953 17.773 34.7953 17.773 34.7953 17.6433V17.5136V17.3838C34.7953 17.2541 34.7953 17.2541 34.7953 17.1244C34.7953 16.8649 34.6665 16.6054 34.5376 16.346C34.4087 16.0865 34.1509 15.9568 34.022 15.6973C33.8932 15.5676 33.8932 15.4379 33.7643 15.3082C33.7643 15.1784 33.6354 15.0487 33.6354 14.919L33.5065 14.7892C33.5065 14.7892 33.5065 14.7892 33.5065 14.6595C33.3776 14.5298 33.3776 14.4 33.2488 14.2703C32.991 14.0109 32.8621 13.8811 32.6043 13.6217C32.4755 13.3622 32.2177 13.1027 32.0888 12.973C31.831 12.7136 31.7022 12.4541 31.5733 12.1946C31.4444 11.9352 31.1866 11.8054 30.9289 11.6757C30.8 11.6757 30.6711 11.546 30.5422 11.546C30.4133 11.546 30.2845 11.4163 30.1556 11.4163C30.0267 11.4163 29.7689 11.4163 29.64 11.4163C29.5112 11.4163 29.3823 11.4163 29.3823 11.4163C29.5112 11.546 29.64 11.546 29.7689 11.546C29.8978 11.546 29.8978 11.6757 30.0267 11.6757C29.64 11.6757 29.64 11.6757 29.64 11.8054C29.64 11.9352 29.7689 11.9352 29.8978 11.9352C30.0267 12.0649 29.8978 12.1946 30.0267 12.3244C30.0267 12.3244 30.1556 12.3244 30.1556 12.4541C30.2845 12.4541 30.2845 12.5838 30.2845 12.5838C30.2845 12.7136 30.4133 12.7136 30.5422 12.7136C30.6711 12.7136 30.8 12.8433 30.8 12.973V13.1027C30.8 13.1027 30.8 13.2325 30.9289 13.2325C30.9289 13.2325 31.0577 13.3622 31.0577 13.4919C31.0577 13.4919 31.0577 13.6217 30.9289 13.6217V13.7514C30.9289 13.8811 31.0577 14.0109 31.0577 14.1406C31.0577 14.2703 31.0577 14.2703 31.0577 14.4C31.0577 14.4 31.0577 14.5298 31.1866 14.5298C31.1866 14.5298 31.3155 14.5298 31.1866 14.5298V14.6595C31.1866 14.7892 31.1866 14.7892 31.1866 14.919C31.1866 14.919 31.1866 15.0487 31.3155 15.0487V15.1784C31.3155 15.1784 31.3155 15.1784 31.3155 15.3082C31.1866 15.3082 31.0577 15.1784 30.9289 15.1784C30.9289 15.0487 30.9289 14.919 30.9289 14.7892C30.9289 14.7892 30.8 14.7892 30.8 14.6595C30.6711 14.6595 30.6711 14.5298 30.6711 14.4C30.6711 14.4 30.6711 14.2703 30.5422 14.2703H30.4133C30.2845 14.2703 30.2845 14.1406 30.2845 14.1406V14.0109C30.1556 14.0109 30.0267 14.0109 30.0267 13.8811C30.0267 13.7514 30.0267 13.7514 30.0267 13.6217L29.8978 13.4919C29.8978 13.3622 29.7689 13.3622 29.7689 13.2325C29.64 13.1027 29.64 12.8433 29.64 12.7136L29.5112 12.5838C29.5112 12.5838 29.3823 12.7136 29.3823 12.8433C29.3823 12.973 29.3823 13.2325 29.3823 13.3622C29.3823 13.4919 29.3823 13.6217 29.5112 13.8811C29.5112 14.0109 29.64 14.2703 29.64 14.4C29.7689 14.6595 29.8978 15.0487 30.0267 15.3082C30.1556 15.5676 30.4133 15.9568 30.5422 16.2163C30.6711 16.6054 30.8 16.9946 30.9289 17.2541C30.9289 17.3838 30.9289 17.3838 30.9289 17.5136V17.6433C30.9289 17.6433 30.9289 17.6433 30.9289 17.773V17.9027V18.0325C30.9289 18.1622 30.9289 18.1622 31.0577 18.2919C31.3155 18.8109 31.5733 19.3298 31.9599 19.719C32.0888 19.8487 32.2177 19.9784 32.3466 19.9784H32.4755H32.6043C32.7332 19.9784 32.8621 19.9784 32.991 20.1082C32.991 20.2379 32.991 20.3676 32.991 20.4973C32.991 20.6271 32.991 20.8865 33.1199 21.0163H32.991C32.8621 21.0163 32.7332 21.146 32.6043 21.146C32.4755 21.146 32.3466 21.146 32.2177 21.146C32.0888 21.146 31.9599 21.146 31.9599 21.2757C31.831 21.2757 31.7022 21.4054 31.5733 21.4054C31.4444 21.4054 31.4444 21.2757 31.3155 21.2757C31.1866 21.2757 31.1866 21.2757 31.1866 21.4054L31.0577 21.5352C30.9289 21.5352 30.9289 21.5352 30.8 21.5352H30.6711L30.5422 21.6649H30.4133C30.2845 21.5352 30.1556 21.6649 30.1556 21.7946C30.1556 21.9244 29.8978 21.9244 29.7689 21.9244C29.64 21.9244 29.64 21.9244 29.5112 21.9244C29.5112 21.9244 29.5112 21.9244 29.5112 21.7946C29.5112 21.6649 29.5112 21.5352 29.5112 21.5352C29.3823 21.5352 29.3823 21.5352 29.2534 21.5352C29.1245 21.5352 28.9956 21.6649 28.8667 21.5352C28.8667 21.5352 28.7379 21.5352 28.609 21.5352C28.4801 21.5352 28.3512 21.5352 28.2223 21.4054H28.0935C27.9646 21.4054 27.8357 21.4054 27.7068 21.4054C27.8357 21.2757 27.8357 21.146 27.8357 21.146C27.8357 21.146 27.9646 21.146 28.0935 21.146C28.2223 21.146 28.2223 21.146 28.3512 21.0163C28.4801 20.8865 28.4801 20.6271 28.3512 20.3676C28.3512 20.3676 28.2223 20.3676 28.2223 20.2379C28.0935 20.2379 28.0934 20.2379 27.9646 20.2379C27.8357 20.2379 27.7068 20.3676 27.7068 20.4973C27.7068 20.6271 27.7068 20.7568 27.7068 20.7568C27.7068 20.8865 27.5779 21.146 27.5779 21.2757C27.5779 21.2757 27.449 21.2757 27.449 21.146C27.449 21.146 27.449 21.146 27.3202 21.146C27.3202 21.146 27.3202 21.146 27.1913 21.146C27.1913 21.146 27.1913 21.146 27.0624 21.146C26.9335 21.146 26.8046 21.146 26.6757 21.0163V20.8865C26.6757 20.8865 26.6757 20.8865 26.5469 20.8865C26.418 21.0163 26.2891 21.0163 26.0313 21.146C25.9024 21.146 25.6447 21.146 25.5158 21.0163C25.5158 21.0163 25.5158 21.0163 25.3869 21.0163C25.0003 21.2757 24.4847 21.146 24.227 20.8865L24.0981 21.0163C23.9692 21.146 23.8403 21.146 23.7115 21.2757C23.7115 21.2757 23.5826 21.2757 23.4537 21.2757H23.3248C23.1959 21.4054 23.067 21.5352 22.9382 21.5352H22.8093C22.8093 21.5352 22.8093 21.5352 22.6804 21.5352C22.6804 21.5352 22.6804 21.5352 22.5515 21.5352L22.4226 21.4054C22.4226 21.4054 22.4226 21.4054 22.2937 21.4054C22.1649 21.5352 22.1649 21.5352 22.036 21.6649H21.9071C21.9071 21.6649 21.9071 21.7946 21.7782 21.7946C21.7782 21.6649 21.6493 21.5352 21.6493 21.4054C21.6493 21.2757 21.6493 21.2757 21.6493 21.146C21.6493 21.0163 21.5204 21.0163 21.3916 20.8865C21.2627 20.8865 21.1338 20.8865 21.0049 21.0163C20.876 21.146 20.876 21.4054 21.0049 21.5352C21.0049 21.5352 21.1338 21.6649 21.2627 21.6649H21.3916C21.3916 21.6649 21.5204 21.7946 21.5204 21.9244C21.5204 21.9244 21.5204 21.9244 21.5204 22.0541C21.5204 22.0541 21.3916 22.0541 21.3916 22.1838C21.2627 22.1838 21.1338 22.1838 21.1338 22.1838H21.0049C21.0049 22.1838 20.876 22.1838 20.876 22.0541C20.876 22.0541 20.7472 22.0541 20.7472 21.9244C20.7472 21.9244 20.7472 21.9244 20.6183 21.9244C20.6183 21.9244 20.6183 21.9244 20.4894 21.9244C20.4894 22.0541 20.3605 22.0541 20.3605 22.0541C20.2316 22.0541 20.2316 22.0541 20.1027 22.0541C19.9739 22.0541 19.9739 21.9244 19.845 22.0541C19.7161 22.0541 19.845 22.1838 19.845 22.3136C19.845 22.4433 19.7161 22.4433 19.5872 22.573C19.5872 22.573 19.5872 22.573 19.4583 22.573C19.4583 22.4433 19.4583 22.4433 19.3294 22.3136C19.2006 22.1838 19.0717 22.1838 18.9428 22.1838C18.8139 22.1838 18.685 22.0541 18.5562 21.9244C18.4273 21.9244 18.5561 21.6649 18.4273 21.6649C18.4273 21.6649 18.4273 21.6649 18.2984 21.6649H18.1695H18.0406C17.9117 21.6649 17.9117 21.6649 17.9117 21.6649C17.9117 21.6649 17.7829 21.6649 17.7829 21.5352C17.7829 21.5352 17.7829 21.5352 17.7829 21.4054C17.7829 21.2757 17.7829 21.146 17.654 21.146H17.5251H17.3962C17.3962 21.146 17.2673 21.146 17.2673 21.0163C17.2673 21.0163 17.2673 20.8865 17.2673 20.7568L17.1384 20.6271H17.0096C16.8807 20.6271 16.7518 20.4973 16.6229 20.4973L16.494 20.3676V20.2379C16.494 20.1082 16.494 20.1082 16.3651 20.1082H16.2363C16.1074 20.1082 16.1074 19.9784 16.1074 19.9784L15.9785 19.8487V19.719C15.9785 19.5892 15.9785 19.5892 15.9785 19.4595C15.9785 19.3298 15.8496 19.2 15.8496 19.2H15.9785H16.1074H16.2363H16.3651C16.3651 19.2 16.494 19.2 16.494 19.0703C16.6229 18.9406 16.7518 18.9406 17.0096 18.8109C17.1384 18.6811 17.1384 18.6811 17.2673 18.5514C17.3962 18.5514 17.3962 18.4217 17.3962 18.4217C17.5251 18.2919 17.5251 18.2919 17.654 18.1622C17.7829 18.0325 17.7829 18.0325 17.9117 17.9027C18.0406 17.773 18.1695 17.6433 18.4273 17.5136C18.685 17.3838 18.9428 17.2541 19.2006 17.1244C19.4583 16.9946 19.7161 16.8649 19.9739 16.6054C20.2316 16.4757 20.4894 16.346 20.6183 16.2163H20.7472C20.876 16.0865 21.0049 16.0865 21.1338 16.0865C21.2627 15.9568 21.3916 15.9568 21.5204 15.8271C21.7782 15.6973 22.036 15.5676 22.1649 15.4379C22.2937 15.3082 22.2937 15.1784 22.4226 15.1784C22.4226 15.0487 22.5515 15.0487 22.5515 14.919C22.4226 14.919 22.4226 14.919 22.2937 14.919H22.1649C22.1649 14.919 22.1649 14.919 22.036 14.919H21.9071C21.7782 14.919 21.7782 15.0487 21.6493 15.0487C21.5204 15.0487 21.5204 15.0487 21.5204 15.0487C21.5204 15.1784 21.3916 15.1784 21.3916 15.3082C21.3916 15.3082 21.1338 15.3082 21.0049 15.3082C21.0049 15.3082 21.0049 15.3082 20.876 15.3082C20.7472 15.3082 20.7472 15.3082 20.6183 15.3082L20.4894 15.4379C20.3605 15.4379 20.3605 15.4379 20.2316 15.4379L20.1027 15.5676C20.1027 15.5676 19.9739 15.5676 19.9739 15.6973C19.845 15.6973 19.845 15.5676 19.7161 15.5676C19.5872 15.5676 19.5872 15.5676 19.5872 15.5676L19.4583 15.6973C19.3294 15.6973 19.2006 15.5676 19.2006 15.6973C19.2006 15.6973 19.2006 15.6973 19.2006 15.8271C19.2006 15.9568 19.0717 15.8271 19.0717 15.8271C19.2006 15.6973 19.4583 15.5676 19.5872 15.4379C19.5872 15.4379 19.7161 15.4379 19.7161 15.3082C19.845 15.3082 19.845 15.1784 19.9739 15.1784C20.1027 15.1784 20.1027 15.0487 20.2316 15.0487L20.3605 14.919C20.3605 14.919 20.4894 14.919 20.4894 14.7892C20.6183 14.7892 20.7472 14.6595 20.7472 14.6595C21.1338 14.4 21.6493 14.2703 22.036 14.1406C22.2937 14.1406 22.4226 14.0109 22.5515 13.8811H22.6804H22.8093C22.9382 13.8811 22.9382 13.8811 23.067 13.8811C23.067 13.8811 23.1959 13.8811 23.067 13.8811H22.9382C22.9382 13.8811 22.9382 13.8811 22.8093 13.8811C22.5515 13.8811 22.4226 13.8811 22.1649 13.7514C21.7782 13.7514 21.3916 13.7514 21.0049 13.7514C20.6183 13.7514 20.3605 13.8811 19.9739 13.8811H19.845C19.4583 14.0109 19.0717 14.1406 18.8139 14.4C18.685 14.4 18.685 14.5298 18.5562 14.5298C18.4273 14.5298 18.4273 14.6595 18.2984 14.6595C18.1695 14.7892 18.0406 14.7892 17.9117 14.919C17.9117 14.919 17.9117 14.919 17.7829 14.919C17.654 14.919 17.654 15.0487 17.5251 15.0487C17.5251 15.0487 17.5251 15.0487 17.3962 14.919C17.3962 14.919 17.3962 14.919 17.2673 15.0487C17.1384 15.1784 17.0096 15.1784 17.0096 15.3082C16.8807 15.4379 16.7518 15.5676 16.6229 15.8271C16.3652 16.2163 16.2363 16.6054 16.1074 16.9946C16.1074 17.1244 16.1074 17.1244 15.9785 17.2541C15.8496 17.6433 15.7207 18.0325 15.3341 18.2919L15.2052 18.4217C15.2052 18.4217 15.0763 18.4217 15.0763 18.5514C14.9474 18.5514 14.9474 18.6811 14.9474 18.8109C14.9474 18.8109 14.9474 18.8109 14.9474 18.9406H14.8186C14.6897 18.9406 14.6897 19.0703 14.6897 19.2C14.6897 19.3298 14.6897 19.3298 14.6897 19.4595C14.6897 19.719 14.6897 19.9784 14.8186 20.2379C14.8186 20.3676 14.9474 20.4973 14.9474 20.6271C14.9474 20.6271 14.9474 20.7568 15.0763 20.7568C15.2052 20.7568 15.2052 20.7568 15.2052 20.7568C15.2052 20.7568 15.2052 20.7568 15.2052 20.8865C15.2052 21.0163 15.2052 21.146 15.2052 21.2757C15.2052 21.4054 15.3341 21.5352 15.3341 21.6649C15.463 21.7946 15.463 21.9244 15.5919 22.1838C15.7207 22.4433 15.9785 22.7027 16.1074 22.9622C16.2363 23.2217 16.494 23.4811 16.7518 23.6109C17.0096 23.8703 17.1384 24.1298 17.3962 24.2595C17.654 24.519 18.0406 24.7784 18.4273 25.0379C18.2984 25.1676 18.2984 25.1676 18.1695 25.2973C17.654 25.1676 17.0096 25.0379 16.494 25.0379H16.3651C16.3651 25.0379 16.3651 25.0379 16.2363 25.0379C16.1074 25.0379 16.1074 25.0379 15.9785 25.0379C15.8496 25.0379 15.7207 25.0379 15.5919 25.0379C15.463 25.0379 15.3341 25.0379 15.2052 24.9082H15.0763H14.9474C14.9474 24.9082 14.9474 24.9082 14.8186 24.9082C14.8186 24.9082 14.8186 24.9082 14.6897 24.9082C14.6897 24.9082 14.6897 24.9082 14.6897 24.7784C14.6897 24.7784 14.6897 24.7784 14.5608 24.7784C14.4319 24.7784 14.303 24.6487 14.303 24.6487C14.0453 24.519 13.6586 24.3892 13.4009 24.2595C13.4009 24.2595 13.4009 24.2595 13.272 24.2595C13.272 24.2595 13.272 24.2595 13.1431 24.2595C13.1431 24.2595 13.1431 24.2595 13.0142 24.2595C13.0142 24.2595 12.8853 24.2595 12.8853 24.1298C12.4987 23.8703 12.112 23.6109 11.8543 23.3514C11.7254 23.2217 11.5965 23.0919 11.4676 22.9622C11.3387 22.8325 11.2098 22.573 11.081 22.4433C11.081 22.4433 11.081 22.4433 11.081 22.3136C11.081 22.3136 11.081 22.3136 11.081 22.1838V22.0541C11.081 21.7946 10.9521 21.5352 10.8232 21.2757C10.6943 21.146 10.8232 20.8865 10.8232 20.7568C10.8232 20.4973 10.6943 20.3676 10.6943 20.1082C10.6943 19.9784 10.5654 19.719 10.5654 19.5892C10.4366 19.719 10.4366 19.8487 10.4366 19.9784C10.4366 20.1082 10.3077 20.3676 10.3077 20.4973C10.3077 20.6271 10.1788 20.7568 10.1788 20.8865C10.1788 21.0163 10.0499 21.2757 10.0499 21.4054C10.0499 21.5352 10.0499 21.5352 10.0499 21.6649C10.0499 21.7946 10.0499 21.7946 10.0499 21.9244C10.0499 22.0541 10.1788 22.3136 10.1788 22.4433C10.1788 22.573 10.1788 22.8325 10.3077 22.9622C10.3077 23.0919 10.4366 23.0919 10.5654 23.0919C10.5654 23.0919 10.5654 23.0919 10.5654 23.2217C10.5654 23.2217 10.5654 23.2217 10.5654 23.3514C10.6943 23.6109 10.8232 23.7406 11.081 24C11.081 24.1298 11.2099 24.1298 11.2099 24.1298C11.3387 24.2595 11.4676 24.519 11.5965 24.6487C11.8543 24.9082 12.2409 25.0379 12.4987 25.1676C12.6276 25.1676 12.8853 25.2973 13.0142 25.2973H13.1431C13.1431 25.2973 13.272 25.2973 13.272 25.1676V25.2973C13.272 25.4271 13.272 25.4271 13.4009 25.5568C13.5297 25.5568 13.5297 25.6865 13.6586 25.6865C13.9164 25.8163 14.1741 25.8163 14.5608 25.946C14.6897 25.946 14.8186 25.946 14.8186 25.946C14.8186 25.946 14.9474 25.946 14.9474 26.0757C15.0763 26.0757 15.0763 26.0757 15.2052 26.2055C15.3341 26.2055 15.3341 26.2054 15.463 26.3352H15.5919C15.9785 26.4649 16.3651 26.5946 16.7518 26.7244C16.8807 26.7244 17.1384 26.8541 17.2673 26.8541H17.3962C17.1384 26.9838 17.0096 27.1136 16.7518 27.373C16.7518 27.373 16.7518 27.373 16.6229 27.5027C16.494 27.6325 16.2363 27.8919 15.9785 27.8919C15.7207 28.0217 15.5919 28.0217 15.3341 28.0217C15.2052 28.0217 14.8186 28.0217 14.8186 28.1514C14.8186 28.1514 14.8186 28.2811 14.9474 28.2811C14.9474 28.2811 14.9474 28.2811 14.8186 28.2811C14.6897 28.2811 14.6897 28.2811 14.5608 28.2811L14.4319 28.1514C14.303 28.0217 14.1741 28.0217 14.1741 27.8919C14.1741 27.8919 14.0453 27.8919 14.0453 27.7622C13.6586 27.6325 13.1431 27.373 12.7564 27.373C12.4987 27.373 12.3698 27.2433 12.112 27.2433C11.9831 27.2433 11.8543 27.1136 11.8543 27.2433C11.7254 27.1136 11.5965 26.9838 11.3387 26.8541C11.081 26.7244 10.9521 26.5946 10.6943 26.4649C10.5654 26.3352 10.3077 26.2054 10.1788 26.0757C10.0499 25.946 9.92103 25.8163 9.66326 25.8163C9.66326 25.6865 9.53438 25.4271 9.40549 25.2973C9.27661 25.0379 9.27661 24.9082 9.14773 24.6487C9.01885 24.3892 9.01885 24.2595 8.88997 24C8.88997 23.8703 8.76108 23.7406 8.76108 23.6109H8.6322C8.6322 23.8703 8.6322 24 8.6322 24.2595C8.6322 24.519 8.76108 24.6487 8.76108 24.9082C8.76108 25.1676 8.88997 25.4271 8.88997 25.6865C8.88997 25.8163 8.88997 26.0757 9.01885 26.2055C9.14773 26.3352 9.27662 26.5946 9.53438 26.7244C9.53438 26.7244 9.53438 26.7244 9.66326 26.7244C10.4366 27.2433 11.2099 27.6325 12.112 27.8919C12.2409 27.8919 12.3698 28.0217 12.4987 27.8919C12.4987 28.0217 12.6276 28.1514 12.7564 28.1514C12.8853 28.2811 13.0142 28.2811 13.272 28.4109C13.5297 28.4109 13.6586 28.4109 13.9164 28.5406C14.1741 28.5406 14.303 28.6703 14.5608 28.6703C14.6897 28.6703 14.8186 28.6703 14.9474 28.6703L15.0763 28.8C15.3341 28.8 15.463 28.8 15.7207 28.8C16.2363 28.8 16.6229 28.6703 17.0096 28.6703C17.2673 28.6703 17.5251 28.6703 17.7829 28.6703C18.0406 28.6703 18.2984 28.6703 18.5562 28.6703H18.685C18.685 28.6703 18.8139 28.6703 18.8139 28.8C18.9428 28.9298 19.0717 28.9298 19.0717 29.0595H18.9428C18.9428 29.0595 18.9428 29.0595 18.8139 29.0595C18.685 29.0595 18.685 29.0595 18.5562 29.1892H18.4273C18.0406 29.319 17.7829 29.4487 17.3962 29.7082C17.1384 29.8379 16.8807 29.9676 16.494 29.9676H16.2363C16.2363 29.9676 16.2363 29.9676 16.2363 30.0973C16.2363 30.0973 16.2363 30.0973 16.1074 30.2271C16.1074 30.2271 16.1074 30.2271 15.9785 30.3568C15.9785 30.3568 15.9785 30.3568 15.8496 30.4865C15.7207 30.746 15.463 31.0055 15.3341 31.2649C15.0763 31.5244 14.9474 31.9136 14.6897 32.3027C14.5608 32.4325 14.5608 32.6919 14.4319 32.8217C14.4319 32.8217 14.4319 32.8217 14.4319 32.9514C14.4319 33.0811 14.303 33.0811 14.303 33.2109C14.303 33.2109 14.303 33.2109 14.1741 33.2109C14.1741 33.3406 14.1741 33.4703 14.1741 33.7298C14.1741 33.9892 14.1741 34.2487 14.0453 34.5082C14.0453 34.6379 14.0453 34.7676 14.0453 34.7676C14.0453 35.1568 13.9164 35.546 13.9164 35.9352C13.9164 36.1946 14.0453 36.4541 14.1741 36.7136C14.1741 36.7136 14.1741 36.8433 14.303 36.8433C14.4319 37.1027 14.4319 37.2325 14.5608 37.4919C14.5608 37.4919 14.5608 37.4919 14.6897 37.4919C14.8186 37.4919 14.8186 37.2325 14.9474 37.2325C15.0763 36.973 15.0763 36.5838 15.0763 36.3244C15.0763 36.1946 15.0763 36.0649 15.2052 35.9352C15.2052 35.6757 15.3341 35.546 15.3341 35.2865C15.3341 35.1568 15.3341 35.0271 15.3341 34.8973C15.3341 34.6379 15.3341 34.5082 15.2052 34.2487C15.2052 34.119 15.2052 33.9892 15.0763 33.9892C15.3341 33.9892 15.2052 33.7298 15.3341 33.4703C15.3341 33.3406 15.3341 33.2109 15.463 33.2109C15.5919 32.9514 15.7207 32.6919 15.8496 32.5622C16.1074 32.173 16.6229 31.9136 16.8807 31.5244C17.0096 31.3946 17.0096 31.2649 17.1384 31.1352C17.1384 31.0054 17.1384 31.0054 17.2673 30.8757C17.3962 31.0054 17.5251 30.8757 17.654 30.8757C17.7829 30.8757 18.0406 30.8757 18.1695 30.746C18.9428 30.6163 19.5872 30.3568 20.2316 30.0973C20.3605 30.0973 20.3605 30.0973 20.4894 29.9676C20.4894 29.9676 20.4894 29.9676 20.6183 30.0973V30.2271V30.3568C20.6183 30.4865 20.6183 30.6163 20.6183 30.746C20.6183 30.746 20.6183 30.746 20.6183 30.8757V31.0054C20.6183 31.0054 20.6183 31.0054 20.6183 31.1352C20.6183 31.1352 20.6183 31.1352 20.4894 31.2649C20.2316 31.5244 19.845 31.5244 19.5872 31.6541C19.2006 31.7838 18.8139 31.9136 18.4273 32.173C18.2984 32.3027 18.1695 32.4325 18.0406 32.5622C18.0406 32.5622 18.0406 32.5622 18.0406 32.6919C17.9117 32.8217 17.654 33.0811 17.654 33.3406V33.4703C17.654 33.4703 17.654 33.4703 17.654 33.6C17.654 33.7298 17.5251 33.7298 17.5251 33.8595C17.5251 33.9892 17.5251 34.119 17.3962 34.119C17.3962 34.119 17.3962 34.119 17.3962 34.2487V34.3784C17.3962 34.6379 17.5251 35.0271 17.654 35.2865C17.654 35.4163 17.7829 35.4163 17.7829 35.546L17.9117 35.6757L18.0406 35.8054L18.1695 35.9352C18.2984 36.1946 18.4273 36.4541 18.685 36.5838C18.9428 36.7136 19.2006 36.8433 19.4583 36.973C19.5872 36.973 19.7161 37.1027 19.7161 37.1027C19.7161 37.1027 19.7161 37.1027 19.845 37.1027H19.9739H20.1027C20.1027 37.1027 20.1027 37.1027 20.2316 37.1027C20.3605 37.1027 20.3605 37.1027 20.4894 37.1027C20.6183 37.1027 20.7472 37.1027 20.7472 37.1027V36.973C20.7472 36.7136 20.6183 36.4541 20.4894 36.1946C20.3605 35.9352 20.1027 35.8055 19.9739 35.6757C19.845 35.6757 19.845 35.546 19.7161 35.546C19.7161 35.4163 19.7161 35.4163 19.7161 35.2865C19.7161 35.1568 19.7161 35.1568 19.7161 35.0271C19.7161 34.8973 19.5872 34.6379 19.5872 34.5082C19.5872 34.3784 19.4583 34.2487 19.4583 34.119C19.4583 34.119 19.4583 33.9892 19.3294 33.9892C19.3294 33.9892 19.3294 33.8595 19.2006 33.8595C19.2006 33.8595 19.2006 33.7298 19.0717 33.7298C19.0717 33.7298 19.0717 33.6 19.2006 33.6C19.2006 33.6 19.2006 33.6 19.2006 33.4703C19.2006 33.4703 19.2006 33.4703 19.2006 33.3406V33.2109V33.0811H19.3294H19.4583C19.5872 33.0811 19.5872 33.0811 19.7161 33.0811C19.845 33.0811 19.9739 33.0811 19.9739 32.9514C20.2316 32.8217 20.3605 32.6919 20.6183 32.5622C20.6183 32.5622 20.876 32.4325 21.0049 32.173C21.1338 32.0433 21.2627 31.9136 21.2627 31.9136C21.3916 31.9136 21.5204 31.9136 21.6493 31.9136C21.9071 31.9136 22.1649 31.7838 22.2937 31.6541C22.6804 31.7838 23.067 31.7838 23.3248 31.9136C23.5826 31.9136 23.7114 31.9136 23.9692 32.0433C24.0981 32.0433 24.227 32.173 24.4847 32.173C24.6136 32.173 24.6136 32.173 24.7425 32.173C25.1292 32.173 25.3869 32.173 25.6447 32.3027H25.7736C26.0313 32.3027 26.1602 32.3027 26.418 32.173C26.5469 32.0433 26.8046 32.0433 26.9335 32.0433C27.0624 32.0433 27.1913 32.173 27.3202 32.173C27.7068 32.173 28.0935 32.0433 28.3512 31.9136C28.8667 31.7838 29.2534 31.6541 29.7689 31.6541C29.8978 31.7838 30.1556 31.7838 30.2845 31.7838C30.4133 31.7838 30.4133 31.7838 30.5422 31.7838C30.5422 31.7838 30.5422 31.7838 30.6711 31.7838H30.8L30.9289 31.9136C31.0577 32.0433 31.3155 32.173 31.3155 32.3027C31.4444 32.4325 31.7022 32.5622 31.9599 32.6919C32.0888 32.6919 32.2177 32.8217 32.2177 32.8217C32.4755 32.8217 32.6043 32.9514 32.8621 32.8217C32.8621 32.9514 32.7332 32.9514 32.8621 33.0811C32.8621 33.3406 32.991 33.4703 33.1199 33.6C33.1199 33.6 33.1199 33.6 32.991 33.7298C32.991 33.7298 32.991 33.7298 32.991 33.8595C32.991 33.8595 32.991 33.9892 32.8621 33.9892C32.8621 33.9892 32.8621 33.9892 32.8621 34.119L32.7332 34.2487C32.7332 34.3784 32.6043 34.5082 32.6043 34.7676C32.6043 34.8973 32.4755 35.1568 32.4755 35.2865C32.4755 35.4163 32.4755 35.4163 32.4755 35.546C32.4755 35.6757 32.4755 35.6757 32.4755 35.8054C32.3466 35.8054 32.3466 35.9352 32.2177 35.9352C31.9599 36.0649 31.831 36.3244 31.7022 36.5838C31.5733 36.8433 31.4444 37.1027 31.4444 37.3622V37.4919C31.5733 37.4919 31.5733 37.4919 31.7022 37.4919C31.831 37.4919 31.831 37.4919 31.9599 37.4919C32.0888 37.4919 32.0888 37.4919 32.2177 37.4919H32.3466C32.4755 37.4919 32.4755 37.4919 32.6043 37.3622C32.8621 37.2325 33.1199 37.1027 33.3776 36.973C33.5065 36.7136 33.7643 36.5838 33.8932 36.3244V36.1946C33.8932 36.1946 34.022 36.0649 34.022 35.9352C34.022 35.8055 34.1509 35.8055 34.1509 35.6757C34.1509 35.546 34.2798 35.546 34.2798 35.4163C34.2798 35.2865 34.4087 35.2865 34.4087 35.1568C34.5376 34.8973 34.6665 34.5082 34.5376 34.2487V34.119C34.5376 34.119 34.5376 34.119 34.5376 33.9892C34.5376 33.7298 34.4087 33.6 34.2798 33.4703C34.2798 33.3406 34.2798 33.3406 34.2798 33.2109C34.1509 32.9514 34.022 32.6919 33.8932 32.6919C33.7643 32.5622 33.6354 32.4325 33.5065 32.3027C33.1199 32.0433 32.7332 31.9136 32.3466 31.7838C32.0888 31.6541 31.7022 31.6541 31.4444 31.5244C31.4444 31.5244 31.4444 31.5244 31.3155 31.3946C31.3155 31.3946 31.3155 31.3946 31.1866 31.2649V31.1352C31.1866 31.1352 31.1866 31.1352 31.1866 31.0054C31.1866 30.8757 31.1866 30.746 31.1866 30.6163C31.1866 30.6163 31.1866 30.6163 31.1866 30.4865C31.1866 30.4865 31.1866 30.4865 31.1866 30.3568C31.1866 30.2271 31.3155 30.2271 31.3155 30.0973C31.3155 30.0973 31.3155 30.0973 31.3155 29.9676L31.4444 29.8379C31.5733 29.8379 31.7022 29.9676 31.7022 29.9676C32.3466 30.2271 32.8621 30.4865 33.5065 30.746C33.6354 30.746 33.7643 30.8757 33.8932 30.8757C34.022 30.8757 34.1509 31.0054 34.2798 30.8757C34.2798 31.0054 34.2798 31.0054 34.2798 31.1352C34.2798 31.2649 34.4087 31.3946 34.4087 31.5244C34.6665 31.9136 35.0531 32.173 35.182 32.5622C35.3109 32.8217 35.4398 32.9514 35.4398 33.2109C35.4398 33.3406 35.4398 33.3406 35.5686 33.4703C35.5686 33.6 35.5686 33.8595 35.6975 33.8595C35.5686 33.8595 35.5686 33.9892 35.5686 34.119C35.4398 34.2487 35.4398 34.5082 35.4398 34.6379C35.4398 34.7676 35.4398 34.8973 35.4398 34.8973C35.4398 35.1568 35.4398 35.2865 35.4398 35.546C35.4398 35.6757 35.4398 35.8055 35.4398 35.9352C35.4398 36.1946 35.4398 36.4541 35.4398 36.7136C35.4398 36.8433 35.5686 36.973 35.5686 37.1027C35.5686 37.1027 35.5686 37.1027 35.6975 37.1027C35.8264 36.973 35.8264 36.7136 35.9553 36.5838C36.0842 36.4541 36.0842 36.3244 36.213 36.1946V36.0649V35.9352C36.3419 35.546 36.3419 35.1568 36.3419 34.7676C36.3419 34.6379 36.3419 34.5082 36.3419 34.5082C36.3419 34.2487 36.3419 34.119 36.3419 33.8595C36.3419 33.7298 36.3419 33.6 36.3419 33.4703C36.3419 33.4703 36.3419 33.3406 36.213 33.3406C36.213 33.2109 36.213 33.2109 36.213 33.0811C36.213 33.0811 36.213 33.0811 36.213 32.9514C36.213 32.8217 36.0842 32.5622 35.9553 32.4325C35.8264 32.173 35.6975 31.7838 35.5686 31.5244C35.4398 31.3946 35.4398 31.1352 35.3109 30.8757C35.3109 30.8757 35.3109 30.746 35.182 30.746C35.182 30.746 35.182 30.6163 35.0531 30.6163C35.0531 30.6163 35.0531 30.6163 34.9242 30.4865C34.9242 30.4865 34.9242 30.4865 34.7953 30.3568C34.7953 30.2271 34.5376 30.3568 34.5376 30.3568C34.2798 30.2271 34.022 30.0973 33.7643 29.9676C33.3776 29.7082 32.991 29.4487 32.4755 29.319C32.4755 29.319 32.4755 29.319 32.3466 29.319C32.2177 29.319 32.2177 29.1892 32.0888 29.1892H31.9599L32.0888 29.0595C32.2177 28.9298 32.3466 28.8 32.4755 28.6703H32.6043C32.8621 28.6703 32.991 28.6703 33.2488 28.6703C33.5065 28.6703 33.6354 28.6703 33.8932 28.8C34.2798 28.9298 34.6665 29.0595 35.0531 29.0595C35.182 29.0595 35.4398 29.1892 35.5686 29.0595H35.6975C35.8264 29.0595 35.9553 29.0595 36.0842 29.0595C36.213 29.0595 36.4708 29.0595 36.5997 29.0595C36.7286 29.0595 36.9863 29.0595 37.1152 29.0595C37.2441 29.0595 37.373 29.0595 37.5019 28.9298C37.6308 28.9298 37.6308 28.8 37.7596 28.6703C37.8885 28.6703 38.0174 28.6703 38.1463 28.6703C38.9196 28.5406 39.564 28.2811 40.3373 27.8919C40.4662 27.7622 40.595 27.6325 40.7239 27.5027C40.8528 27.373 40.8528 27.2433 40.9817 26.9838C40.9817 26.7244 41.1106 26.5946 41.1106 26.3352C41.1106 26.2054 41.2395 25.946 41.2395 25.8163C41.1106 23.7406 41.2395 23.4811 41.2395 23.3514Z" fill="#FDFDFD"/>
</svg>
