<svg width="48" height="48" viewBox="0 0 48 48" fill="none" xmlns="http://www.w3.org/2000/svg">
<path d="M17.0125 0H30.5452C35.7005 0 39.9536 1.55676 42.9179 4.67027C46.011 7.78378 47.5576 11.9351 47.5576 17.1243V30.8757C47.5576 36.0649 46.011 40.3459 42.9179 43.3297C39.9536 46.4432 35.7005 48 30.5452 48H17.0125C11.7283 48 7.60407 46.4432 4.63977 43.3297C1.54659 40.2162 0 36.0649 0 30.8757V17.1243C0 11.8054 1.54659 7.65405 4.63977 4.67027C7.60407 1.55676 11.7283 0 17.0125 0Z" fill="#F9803B"/>
<path d="M23.7144 43.3296C23.07 43.3296 23.3278 35.2864 23.7144 35.2864C24.1011 35.2864 24.4877 43.3296 23.7144 43.3296Z" fill="#FDFDFD"/>
<path d="M23.8438 39.3081V37.3621C23.8438 37.3621 23.9727 36.5838 21.6528 35.9351C19.3329 35.2865 18.173 34.2486 17.7863 33.0811C17.7863 33.0811 17.3997 35.027 19.3329 36.454C21.1373 37.7513 23.1994 38.5297 23.8438 39.3081Z" fill="#FDFDFD"/>
<path d="M23.7144 41.2541V39.3082C23.7144 39.3082 23.5855 38.5298 25.9054 37.8812C28.2253 37.2325 29.3853 36.1947 29.7719 35.0271C29.7719 35.0271 30.1585 36.973 28.2253 38.4001C26.421 39.6974 24.3588 40.346 23.7144 41.2541Z" fill="#FDFDFD"/>
<path d="M23.3277 34.2487C23.3277 34.2487 23.9721 31.6541 22.2967 30.4866C20.6212 29.319 18.5591 28.1514 17.9147 27.373C18.0436 27.373 15.8525 32.5622 23.3277 34.2487Z" fill="#FDFDFD"/>
<path d="M23.3277 28.8001C23.3277 28.8001 23.8432 26.3352 22.4255 25.1676C20.8789 24.0001 18.8168 22.9622 18.3013 22.1838C18.1724 22.0541 16.1103 27.1136 23.3277 28.8001Z" fill="#FDFDFD"/>
<path d="M23.3277 23.481C23.3277 23.481 23.8432 21.0162 22.4255 19.9783C20.8789 18.8108 18.9457 17.9026 18.4302 17.1243C18.4302 17.1243 16.368 21.9243 23.3277 23.481Z" fill="#FDFDFD"/>
<path d="M23.3278 17.9027C23.3278 17.9027 23.8433 15.5676 22.4256 14.5297C21.0079 13.4919 19.2036 12.5838 18.688 11.8054C18.688 11.9351 16.7548 16.4757 23.3278 17.9027Z" fill="#FDFDFD"/>
<path d="M24.1009 34.2487C24.1009 34.2487 23.4565 31.6541 25.132 30.4866C26.6786 29.319 28.8696 28.1514 29.514 27.373C29.3851 27.373 31.5761 32.5622 24.1009 34.2487Z" fill="#FDFDFD"/>
<path d="M24.101 28.8001C24.101 28.8001 23.5855 26.3352 25.0032 25.1676C26.5498 24.0001 28.6119 22.9622 29.1275 22.1838C29.2563 22.0541 31.3185 27.1136 24.101 28.8001Z" fill="#FDFDFD"/>
<path d="M24.101 23.481C24.101 23.481 23.5855 21.0162 25.0032 19.9783C26.5498 18.8108 28.483 17.9026 28.9986 17.1243C28.9986 17.1243 31.0607 21.9243 24.101 23.481Z" fill="#FDFDFD"/>
<path d="M24.101 17.9027C24.101 17.9027 23.5855 15.5676 25.0032 14.5297C26.4209 13.4919 28.2253 12.5838 28.7408 11.8054C28.7408 11.9351 30.674 16.4757 24.101 17.9027Z" fill="#FDFDFD"/>
<path d="M23.8432 13.4919C23.8432 13.4919 18.6879 9.2108 23.8432 4.54053C23.8432 4.67026 28.7408 9.34053 23.8432 13.4919Z" fill="#FDFDFD"/>
</svg>
