<svg xmlns="http://www.w3.org/2000/svg" xmlns:xlink="http://www.w3.org/1999/xlink" viewBox="0 0 151 198.54"><defs><style>.cls-1{isolation:isolate;}.cls-2{opacity:0.3;fill:url(#radial-gradient);}.cls-2,.cls-7{mix-blend-mode:multiply;}.cls-3,.cls-7{fill:#c64e53;}.cls-4,.cls-8{fill:#c95f64;}.cls-5{fill:#fff;}.cls-6{fill:none;}.cls-7,.cls-8{opacity:0.4;}.cls-8{mix-blend-mode:screen;}</style><radialGradient id="radial-gradient" cx="75.5" cy="192.02" r="62.99" gradientTransform="translate(0 175.84) scale(1 0.08)" gradientUnits="userSpaceOnUse"><stop offset="0.18"/><stop offset="1" stop-opacity="0"/></radialGradient></defs><title>point</title><g class="cls-1"><g id="Capa_1" data-name="Capa 1"><path class="cls-2" d="M142.76,192c0,3.6-30.11,6.51-67.26,6.51S8.24,195.62,8.24,192s30.12-6.51,67.26-6.51S142.76,188.42,142.76,192Z" transform="translate(0 0)"/><path class="cls-3" d="M75.5,161.58a86,86,0,0,1-31.73-6A349.34,349.34,0,0,0,75.5,184.77a348.59,348.59,0,0,0,31.74-29.22A86.08,86.08,0,0,1,75.5,161.58Z" transform="translate(0 0)"/><path class="cls-4" d="M75.5,0A75.49,75.49,0,0,0,19.06,125.63L137.82,32.88A75.42,75.42,0,0,0,75.5,0Z" transform="translate(0 0)"/><path class="cls-3" d="M19.06,125.63A75.49,75.49,0,0,0,137.82,32.88Z" transform="translate(0 0)"/><path class="cls-5" d="M85,46.58c6.12,0,10.75,1.67,14.18,5.1s5.09,8.06,5.09,14.17V85.14c0,6.12-1.66,10.75-5.09,14.18s-8.07,5.09-14.18,5.09H66c-6.11,0-10.75-1.66-14.18-5.09s-5.09-8.06-5.09-14.18V65.85c0-6.11,1.67-10.75,5.09-14.18S59.92,46.58,66,46.58H85m0-4.84H66q-11.1,0-17.6,6.51t-6.51,17.6V85.14q0,11.08,6.51,17.61T66,109.26H85q11.09,0,17.61-6.51t6.51-17.61V65.85q0-11.1-6.51-17.6T85,41.74Z" transform="translate(0 0)"/><path class="cls-6" d="M75.5,6A69.46,69.46,0,0,0,23.82,121.92h0l109.25-85.3,0,0A69.5,69.5,0,0,0,75.5,6Z" transform="translate(0 0)"/><path class="cls-6" d="M75.5,145A69.47,69.47,0,0,0,133.08,36.62L23.83,121.92A69.33,69.33,0,0,0,75.5,145Z" transform="translate(0 0)"/><path class="cls-7" d="M23.82,121.92l-4.76,3.71,4.76-3.71A69.47,69.47,0,1,1,133.06,36.59l4.76-3.71-4.76,3.71,0,0,4.76-3.71A75.49,75.49,0,1,0,19.07,125.64l4.76-3.72Z" transform="translate(0 0)"/><path class="cls-8" d="M133.08,36.62a69.46,69.46,0,0,1-109.25,85.3l-4.76,3.72A75.49,75.49,0,0,0,137.84,32.91Z" transform="translate(0 0)"/></g></g></svg>