<svg width="198" height="36" viewBox="0 0 198 36" fill="none" xmlns="http://www.w3.org/2000/svg">
<g clip-path="url(#clip0)">
<path d="M12.9496 0H23.0504C26.9352 0 30.0432 1.03597 32.3741 3.36691C34.705 5.69784 35.741 8.80576 35.741 12.6906V23.0504C35.741 26.9352 34.705 30.0432 32.3741 32.3741C30.0432 34.705 26.9352 35.741 23.0504 35.741H12.9496C9.06475 35.741 5.95683 34.705 3.6259 32.3741C1.03597 30.3022 0 27.1942 0 23.3094V12.9496C0 9.06475 1.03597 5.95683 3.36691 3.6259C5.69784 1.03597 9.06475 0 12.9496 0Z" fill="#FF4D4D"/>
<path d="M53.3525 0H63.4532C67.3381 0 70.446 1.03597 72.777 3.36691C75.1079 5.69784 76.4029 9.06475 76.4029 12.9496V23.3094C76.4029 27.1942 75.3669 30.3022 73.0359 32.6331C70.705 34.964 67.5971 36 63.7122 36H53.6115C49.7266 36 46.6187 34.964 44.2877 32.6331C41.9568 30.3022 40.9208 27.1942 40.9208 23.3094V12.9496C40.9208 9.06475 41.9568 5.95683 44.2877 3.6259C46.1007 1.03597 49.2086 0 53.3525 0Z" fill="#FF4D4D"/>
<path d="M93.7554 0H103.856C107.741 0 110.849 1.03597 113.18 3.36691C115.511 5.69784 116.547 9.06475 116.547 12.9496V23.3094C116.547 27.1942 115.511 30.3022 113.18 32.6331C110.849 34.964 107.741 36 103.856 36H93.7554C89.8705 36 86.7626 34.964 84.4317 32.6331C82.1007 30.3022 81.0648 27.1942 81.0648 23.3094V12.9496C81.0648 9.06475 82.1007 5.95683 84.4317 3.6259C86.5036 1.03597 89.6115 0 93.7554 0Z" fill="#FF4D4D"/>
<path d="M133.899 0H144C147.885 0 150.993 1.03597 153.324 3.36691C155.655 5.69784 156.691 8.80576 156.691 12.6906V23.0504C156.691 26.9352 155.655 30.0432 153.324 32.3741C150.993 34.705 147.885 35.741 144 35.741H133.899C130.014 35.741 126.906 34.705 124.576 32.3741C122.245 30.0432 121.209 26.9352 121.209 23.0504V12.9496C121.209 9.06475 122.245 5.95683 124.576 3.6259C126.906 1.03597 130.014 0 133.899 0Z" fill="#FF4D4D"/>
<path d="M174.302 0H184.403C188.288 0 191.396 1.03597 193.727 3.36691C196.058 5.69784 197.094 8.80576 197.094 12.6906V23.0504C197.094 26.9352 196.058 30.0432 193.727 32.3741C191.396 34.705 188.288 35.741 184.403 35.741H174.302C170.417 35.741 167.309 34.705 164.978 32.3741C162.647 30.0432 161.612 26.9352 161.612 23.0504V12.9496C161.612 9.06475 162.647 5.95683 164.978 3.6259C167.309 1.03597 170.417 0 174.302 0Z" fill="#FF4D4D"/>
</g>
<defs>
<clipPath id="clip0">
<rect width="197.353" height="36" fill="white"/>
</clipPath>
</defs>
</svg>
