<svg width="48" height="48" viewBox="0 0 48 48" fill="none" xmlns="http://www.w3.org/2000/svg">
<path d="M17.032 0H30.5647C35.72 0 39.9731 1.55676 42.9374 4.67027C46.0306 7.78378 47.5772 11.9351 47.5772 17.1243V30.8757C47.5772 36.0649 46.0306 40.3459 42.9374 43.3297C39.8442 46.4432 35.72 48 30.5647 48H17.032C11.7478 48 7.62359 46.4432 4.65929 43.3297C1.56611 40.2162 0.0195312 36.0649 0.0195312 30.8757V17.1243C0.0195312 11.8054 1.56611 7.65405 4.65929 4.67027C7.75247 1.55676 11.8767 0 17.032 0Z" fill="#C7804D"/>
<path d="M16.6454 22.8326C18.5786 22.8326 20.383 22.4434 21.9295 21.9245C23.0895 21.4056 24.5072 21.4056 25.6671 21.9245C27.2137 22.5731 29.0181 22.8326 30.9513 22.8326C36.8799 22.8326 41.6486 19.7191 41.6486 15.8272C41.6486 11.9353 36.8799 8.82178 30.9513 8.82178C29.0181 8.82178 27.2137 9.21097 25.6671 9.72989C24.5072 10.2488 23.0895 10.2488 21.9295 9.72989C20.383 9.08124 18.5786 8.82178 16.6454 8.82178C10.7168 8.82178 5.94812 11.9353 5.94812 15.8272C5.94812 19.7191 10.7168 22.8326 16.6454 22.8326ZM17.032 10.3785C18.8364 10.3785 20.5118 10.638 22.0584 11.1569C23.2184 11.5461 24.3783 11.5461 25.5383 11.1569C26.956 10.638 28.7603 10.3785 30.5647 10.3785C36.1066 10.3785 40.6175 12.8434 40.6175 15.8272C40.6175 18.811 36.1066 21.2758 30.5647 21.2758C28.7603 21.2758 27.0848 21.0164 25.5383 20.4975C24.3783 20.1083 23.2184 20.1083 22.0584 20.4975C20.6407 21.0164 18.8364 21.2758 17.032 21.2758C11.4901 21.2758 6.97918 18.811 6.97918 15.8272C7.10807 12.8434 11.4901 10.3785 17.032 10.3785Z" fill="#FDFDFD"/>
<path d="M22.1873 16.865C23.0894 14.9191 22.9606 14.5299 23.8627 13.6218C23.8627 13.6218 22.9606 13.3623 20.6407 12.065C17.032 9.98932 8.5257 11.9353 9.42788 17.2542C10.2012 21.9245 20.5118 20.4974 22.1873 16.865Z" fill="#FDFDFD"/>
<path d="M37.0089 17.3841C38.0399 15.5678 37.911 15.1787 38.8132 14.2705C38.8132 14.2705 37.911 14.0111 35.72 12.4543C32.2402 10.1192 23.6051 11.4165 24.1206 16.7354C24.765 21.6651 35.0756 20.8868 37.0089 17.3841Z" fill="#FDFDFD"/>
<path d="M41.6486 32.1731C41.6486 28.2812 36.8799 25.1677 30.9513 25.1677C29.0181 25.1677 27.2137 25.5569 25.6671 26.0758C24.5072 26.5948 23.0895 26.5948 21.9295 26.0758C20.383 25.4272 18.5786 25.1677 16.6454 25.1677C10.7168 25.1677 5.94812 28.2812 5.94812 32.1731C5.94812 36.065 10.7168 39.1785 16.6454 39.1785C18.5786 39.1785 20.383 38.7893 21.9295 38.2704C23.0895 37.7515 24.5072 37.7515 25.6671 38.2704C27.2137 38.9191 29.0181 39.1785 30.9513 39.1785C36.8799 39.0488 41.6486 35.9353 41.6486 32.1731ZM39.0709 29.838L39.3287 29.9677C39.4576 29.9677 39.5864 30.0975 39.7153 30.2272L40.102 30.8758C40.2308 31.265 39.9731 31.7839 39.4575 31.7839H38.5554C38.1687 31.7839 37.7821 31.3947 37.911 31.0056L38.1687 30.2272C38.2976 29.838 38.6843 29.7083 39.0709 29.838ZM36.6221 27.892L37.2665 27.5029C37.6532 27.2434 38.1687 27.5029 38.1687 28.0218V28.5407C38.1687 28.8002 38.0398 29.1893 37.6532 29.1893H37.3954C37.2666 29.1893 37.0088 29.1893 36.8799 29.0596L36.4933 28.8002C36.2355 28.6704 36.2355 28.0218 36.6221 27.892ZM36.2355 29.838C36.4932 29.838 36.751 30.0975 36.751 30.4866V31.1353C36.751 31.5245 36.4933 31.7839 36.1066 31.7839H34.9467C34.56 31.7839 34.1734 31.3947 34.3022 31.0056L34.6889 30.0975C34.8178 29.838 35.0756 29.5785 35.4622 29.7083L36.2355 29.838ZM32.7557 28.411L33.1423 27.5029C33.2712 27.2434 33.529 26.9839 33.9156 27.1137L34.8178 27.2434C35.0756 27.2434 35.3333 27.5029 35.3333 27.892V28.5407C35.3333 28.9299 35.0755 29.1893 34.6889 29.1893H33.529C32.8846 29.1893 32.6268 28.8002 32.7557 28.411ZM32.369 29.838L32.6268 29.9677C32.7557 29.9677 32.8845 30.0975 33.0134 30.2272L33.4001 30.8758C33.529 31.265 33.2712 31.7839 32.7557 31.7839H31.8535C31.4668 31.7839 31.0802 31.3947 31.2091 31.0056L31.4668 30.2272C31.5957 29.838 31.9824 29.7083 32.369 29.838ZM31.4668 28.0218V28.5407C31.4668 28.8002 31.338 29.1893 30.9513 29.1893H30.6936C30.5647 29.1893 30.3069 29.1893 30.178 29.0596L29.7914 28.8002C29.4047 28.5407 29.4047 28.0218 29.7914 27.7623L30.4358 27.3731C30.9513 27.2434 31.4668 27.5029 31.4668 28.0218ZM29.7914 26.2056L30.178 25.9461C30.4358 25.8164 30.8224 25.9461 30.8224 26.2056V26.465C30.8224 26.7245 30.6935 26.8542 30.4358 26.8542H30.178C30.0491 26.8542 29.9203 26.8542 29.9203 26.8542L29.6625 26.7245C29.5336 26.7245 29.5336 26.3353 29.7914 26.2056ZM29.5336 29.838C29.7914 29.838 30.0491 30.0975 30.0491 30.4866V31.1353C30.0491 31.5245 29.7914 31.7839 29.4047 31.7839H28.2448C27.8581 31.7839 27.4715 31.3947 27.6004 31.0056L27.987 30.0975C28.1159 29.838 28.3737 29.5785 28.7603 29.7083L29.5336 29.838ZM26.1827 27.892L26.5693 26.9839C26.6982 26.7245 26.956 26.465 27.3426 26.5948L28.2448 26.7245C28.5025 26.7245 28.7603 26.9839 28.7603 27.3731V28.0218C28.7603 28.411 28.5026 28.6704 28.1159 28.6704H26.956C26.3115 28.6704 26.0538 28.2812 26.1827 27.892ZM25.6671 29.838L25.9249 29.9677C26.0538 29.9677 26.1827 30.0975 26.3115 30.2272L26.6982 30.8758C26.8271 31.265 26.5693 31.7839 26.0538 31.7839H25.1516C24.765 31.7839 24.3783 31.3947 24.5072 31.0056L24.765 30.2272C24.8938 29.838 25.2805 29.7083 25.6671 29.838ZM23.2184 27.892L23.8628 27.5029C24.2494 27.2434 24.765 27.5029 24.765 28.0218V28.5407C24.765 28.8002 24.6361 29.1893 24.2494 29.1893H23.9917C23.8628 29.1893 23.605 29.1893 23.4761 29.0596L23.0895 28.8002C22.8317 28.6704 22.8317 28.0218 23.2184 27.892ZM21.9295 29.7083L22.8317 29.838C23.0895 29.838 23.3472 30.0975 23.3472 30.4866V31.1353C23.3472 31.5245 23.0895 31.7839 22.7028 31.7839H21.5429C21.1563 31.7839 20.7696 31.3947 20.8985 31.0056L21.2851 30.0975C21.2851 29.838 21.6718 29.5785 21.9295 29.7083ZM19.0941 28.411L19.4808 27.5029C19.6097 27.2434 19.8674 26.9839 20.2541 27.1137L21.1562 27.2434C21.414 27.2434 21.6718 27.5029 21.6718 27.892V28.5407C21.6718 28.9299 21.414 29.1893 21.0274 29.1893H19.6097C19.223 29.1893 18.8364 28.8002 19.0941 28.411ZM18.9653 29.838L19.223 29.9677C19.3519 29.9677 19.4808 30.0975 19.6097 30.2272L19.9963 30.8758C20.1252 31.265 19.8674 31.7839 19.3519 31.7839H18.4497C18.0631 31.7839 17.6764 31.3947 17.8053 31.0056L18.0631 30.2272C18.3208 29.838 18.7075 29.7083 18.9653 29.838ZM18.0631 28.0218V28.5407C18.0631 28.8002 17.9342 29.1893 17.5475 29.1893H17.2898C17.1609 29.1893 16.9031 29.1893 16.7743 29.0596L16.3876 28.8002C16.001 28.5407 16.001 28.0218 16.3876 27.7623L17.032 27.3731C17.5475 27.2434 18.0631 27.5029 18.0631 28.0218ZM15.8721 26.3353L16.2587 26.0758C16.5165 25.9461 16.9031 26.0758 16.9031 26.3353V26.5948C16.9031 26.8542 16.7743 26.9839 16.5165 26.9839H16.2587C16.1298 26.9839 16.001 26.9839 16.001 26.9839L15.7432 26.8542C15.4854 26.8542 15.4854 26.465 15.8721 26.3353ZM16.1298 29.838C16.3876 29.838 16.6454 30.0975 16.6454 30.4866V31.1353C16.6454 31.5245 16.3876 31.7839 16.001 31.7839H14.841C14.4544 31.7839 14.0677 31.3947 14.1966 31.0056L14.5833 30.0975C14.7121 29.838 14.9699 29.5785 15.3565 29.7083L16.1298 29.838ZM12.5211 28.0218L12.9078 27.1137C13.0367 26.8542 13.2944 26.5948 13.6811 26.7245L14.5833 26.8542C14.841 26.8542 15.0988 27.1137 15.0988 27.5029V28.1515C15.0988 28.5407 14.841 28.8002 14.4544 28.8002H13.1655C12.7789 28.8002 12.3922 28.411 12.5211 28.0218ZM12.2634 29.838L12.5211 29.9677C12.65 29.9677 12.7789 30.0975 12.9078 30.2272L13.2944 30.8758C13.4233 31.265 13.1656 31.7839 12.65 31.7839H11.7478C11.3612 31.7839 10.9745 31.3947 11.1034 31.0056L11.3612 30.2272C11.619 29.838 12.0056 29.7083 12.2634 29.838ZM9.81459 27.892L10.459 27.5029C10.8457 27.2434 11.3612 27.5029 11.3612 28.0218V28.5407C11.3612 28.8002 11.2323 29.1893 10.8457 29.1893H10.5879C10.459 29.1893 10.2013 29.1893 10.0724 29.0596L9.68572 28.8002C9.42796 28.6704 9.42794 28.0218 9.81459 27.892ZM7.49472 31.0056L7.88136 30.0975C8.01024 29.838 8.26801 29.5785 8.65466 29.7083L9.55683 29.838C9.8146 29.838 10.0724 30.0975 10.0724 30.4866V31.1353C10.0724 31.5245 9.81461 31.7839 9.42796 31.7839H8.26801C7.6236 31.7839 7.36584 31.3947 7.49472 31.0056ZM8.52577 34.638C8.268 34.7677 7.88137 34.5083 7.75249 34.2488L7.36583 33.3407C7.23695 32.9515 7.49472 32.5623 8.01025 32.5623H9.17018C9.55683 32.5623 9.81459 32.8218 9.81459 33.211V33.8596C9.81459 34.1191 9.55684 34.3785 9.29907 34.5083L8.52577 34.638ZM11.4901 36.4542C11.4901 36.8434 10.9745 37.1029 10.5879 36.9731L9.94348 36.5839C9.55684 36.3245 9.55684 35.8056 9.94348 35.5461L10.3301 35.2866C10.459 35.1569 10.5879 35.1569 10.8457 35.1569H11.1034C11.4901 35.2866 11.619 35.5461 11.619 35.8056L11.4901 36.4542ZM12.2634 34.5083C11.8767 34.638 11.4901 34.5083 11.3612 34.1191L11.1034 33.3407C10.9745 32.9515 11.2323 32.5623 11.7478 32.5623H12.65C13.1656 32.5623 13.4233 33.0812 13.2944 33.4704L12.9078 34.1191C12.7789 34.2488 12.7789 34.3785 12.5211 34.3785L12.2634 34.5083ZM14.9699 36.8434C14.9699 37.1029 14.7121 37.3623 14.4544 37.492L13.5522 37.6218C13.2944 37.7515 12.9078 37.492 12.7789 37.2326L12.3922 36.3245C12.2634 35.9353 12.5211 35.5461 13.0367 35.5461H14.1966C14.5833 35.5461 14.841 35.8056 14.841 36.1947V36.8434H14.9699ZM14.4544 34.2488L14.0677 33.3407C13.9388 32.9515 14.1966 32.5623 14.7121 32.5623H15.8721C16.2587 32.5623 16.5165 32.8218 16.5165 33.211V33.8596C16.5165 34.1191 16.2587 34.3785 16.001 34.5083L15.0988 34.638C14.9699 34.7677 14.5832 34.638 14.4544 34.2488ZM16.9031 38.011C16.9031 38.2704 16.5165 38.4002 16.2587 38.2704L15.8721 38.011C15.6143 37.8812 15.6143 37.492 15.8721 37.3623L16.1298 37.2326C16.2587 37.2326 16.3876 37.1029 16.3876 37.2326H16.6454C16.9031 37.2326 17.032 37.492 17.032 37.6218L16.9031 38.011ZM18.0631 36.4542C18.0631 36.8434 17.5476 37.1029 17.1609 36.9731L16.5165 36.5839C16.1298 36.3245 16.1298 35.8056 16.5165 35.5461L16.9031 35.2866C17.032 35.1569 17.1609 35.1569 17.4187 35.1569H17.6764C18.0631 35.2866 18.1919 35.5461 18.1919 35.8056L18.0631 36.4542ZM18.1919 34.2488L17.9342 33.4704C17.8053 33.0812 18.0631 32.692 18.5786 32.692H19.4808C19.9963 32.692 20.2541 33.211 20.1252 33.6002L19.7386 34.2488C19.6097 34.3785 19.6097 34.5083 19.3519 34.5083L19.0941 34.638C18.7075 34.638 18.3208 34.5083 18.1919 34.2488ZM21.5429 36.4542C21.5429 36.7137 21.2851 36.9731 21.0274 37.1029L20.1252 37.2326C19.8674 37.3623 19.4808 37.1029 19.3519 36.8434L18.9653 35.9353C18.8364 35.5461 19.0941 35.1569 19.6097 35.1569H20.7696C21.1562 35.1569 21.414 35.4164 21.414 35.8056V36.4542H21.5429ZM21.9295 34.638C21.6718 34.7677 21.2851 34.5083 21.1562 34.2488L20.7696 33.3407C20.6407 32.9515 20.8985 32.5623 21.414 32.5623H22.574C22.9606 32.5623 23.2184 32.8218 23.2184 33.211V33.8596C23.2184 34.1191 22.9606 34.3785 22.7028 34.5083L21.9295 34.638ZM24.765 36.4542C24.765 36.8434 24.2494 37.1029 23.8628 36.9731L23.2184 36.5839C22.8317 36.3245 22.8317 35.8056 23.2184 35.5461L23.605 35.2866C23.7339 35.1569 23.8628 35.1569 24.1205 35.1569H24.3783C24.765 35.2866 24.8938 35.5461 24.8938 35.8056L24.765 36.4542ZM25.9249 34.5083L25.6671 34.638C25.2805 34.7677 24.8938 34.638 24.765 34.2488L24.5072 33.4704C24.3783 33.0812 24.6361 32.692 25.1516 32.692H26.0538C26.5693 32.692 26.8271 33.211 26.6982 33.6002L26.3115 34.2488C26.1827 34.2488 26.0538 34.3785 25.9249 34.5083ZM28.6314 36.9731C28.6314 37.2326 28.3737 37.492 28.1159 37.6218L27.2137 37.7515C26.956 37.8812 26.5693 37.6218 26.4404 37.3623L26.0538 36.4542C25.9249 36.065 26.1827 35.6758 26.6982 35.6758H27.8581C28.2448 35.6758 28.5025 35.9353 28.5025 36.3245V36.9731H28.6314ZM28.6314 34.638C28.3737 34.7677 27.987 34.5083 27.8581 34.2488L27.4715 33.3407C27.3426 32.9515 27.6004 32.5623 28.1159 32.5623H29.2758C29.6625 32.5623 29.9203 32.8218 29.9203 33.211V33.8596C29.9203 34.1191 29.6625 34.3785 29.4047 34.5083L28.6314 34.638ZM30.8224 38.1407C30.8224 38.4002 30.4358 38.6596 30.178 38.4002L29.7914 38.1407C29.5336 38.011 29.5336 37.6218 29.7914 37.492L30.0491 37.3623C30.178 37.3623 30.3069 37.2326 30.3069 37.3623H30.5647C30.8224 37.3623 30.9513 37.6218 30.9513 37.7515L30.8224 38.1407ZM31.4668 36.4542C31.4668 36.8434 30.9513 37.1029 30.5647 36.9731L29.9203 36.5839C29.5336 36.3245 29.5336 35.8056 29.9203 35.5461L30.3069 35.2866C30.4358 35.1569 30.5647 35.1569 30.8224 35.1569H31.0802C31.4668 35.2866 31.5957 35.5461 31.5957 35.8056L31.4668 36.4542ZM32.369 34.5083C31.9824 34.638 31.5957 34.5083 31.4668 34.1191L31.2091 33.3407C31.0802 32.9515 31.338 32.5623 31.8535 32.5623H32.7557C33.2712 32.5623 33.529 33.0812 33.4001 33.4704L33.0134 34.1191C32.8845 34.2488 32.8846 34.3785 32.6268 34.3785L32.369 34.5083ZM35.2044 36.4542C35.2044 36.7137 34.9467 36.9731 34.6889 37.1029L33.7867 37.2326C33.529 37.3623 33.1423 37.1029 33.0134 36.8434L32.6268 35.9353C32.4979 35.5461 32.7557 35.1569 33.2712 35.1569H34.4311C34.8178 35.1569 35.0755 35.4164 35.0755 35.8056V36.4542H35.2044ZM35.3333 34.638C35.0755 34.7677 34.6889 34.5083 34.56 34.2488L34.1734 33.3407C34.0445 32.9515 34.3023 32.5623 34.8178 32.5623H35.9777C36.3644 32.5623 36.6221 32.8218 36.6221 33.211V33.8596C36.6221 34.1191 36.3644 34.3785 36.1066 34.5083L35.3333 34.638ZM38.1687 36.4542C38.1687 36.8434 37.6532 37.1029 37.2665 36.9731L36.6221 36.5839C36.2355 36.3245 36.2355 35.8056 36.6221 35.5461L37.0088 35.2866C37.1377 35.1569 37.2665 35.1569 37.5243 35.1569H37.7821C38.1687 35.2866 38.2976 35.5461 38.2976 35.8056L38.1687 36.4542ZM39.3287 34.5083L39.0709 34.638C38.6843 34.7677 38.2976 34.638 38.1687 34.2488L37.911 33.4704C37.7821 33.0812 38.0398 32.692 38.5554 32.692H39.4575C39.9731 32.692 40.2308 33.211 40.102 33.6002L39.7153 34.2488C39.5864 34.2488 39.4576 34.3785 39.3287 34.5083Z" fill="#FDFDFD"/>
</svg>
