<svg width="49" height="48" viewBox="0 0 49 48" fill="none" xmlns="http://www.w3.org/2000/svg">
<path d="M17.5223 0H31.0549C36.2102 0 40.4633 1.55676 43.4276 4.67027C46.5208 7.78378 48.0674 11.9351 48.0674 17.1243V30.8757C48.0674 36.0649 46.5208 40.3459 43.4276 43.3297C40.3344 46.4432 36.2102 48 31.0549 48H17.5223C12.2381 48 8.11383 46.4432 5.14953 43.3297C2.05635 40.2162 0.509766 36.0649 0.509766 30.8757V17.1243C0.509766 11.8054 2.05635 7.65405 5.14953 4.67027C8.24271 1.55676 12.367 0 17.5223 0Z" fill="#FFA026"/>
<path d="M24.353 10.7676C19.0688 10.7676 14.3002 17.6433 14.3002 25.5568C14.3002 28.5406 15.3312 31.3946 17.2645 33.6C18.1666 34.6378 19.1977 35.546 20.4865 36.1946C21.7754 36.8433 23.0642 37.1027 24.353 37.1027C25.6418 37.1027 27.0595 36.8433 28.2195 36.1946C29.3794 35.546 30.5394 34.7676 31.4415 33.6C33.3748 31.3946 34.4058 28.5406 34.4058 25.5568C34.277 17.6433 29.6372 10.7676 24.353 10.7676ZM24.353 35.546C19.8421 35.546 15.9756 31.0054 15.9756 25.5568C15.9756 18.6811 19.971 12.4541 24.353 12.4541C28.735 12.4541 32.7304 18.6811 32.7304 25.5568C32.7304 31.0054 28.8639 35.546 24.353 35.546Z" fill="#FDFDFD"/>
<path d="M21.2599 30.0972C20.2288 28.9296 19.5844 27.2431 19.5844 25.5566H18.0378C18.0378 27.6323 18.8111 29.708 20.1 31.135C21.2599 32.562 22.8065 33.3404 24.3531 33.3404V31.6539C23.1931 31.7837 22.1621 31.135 21.2599 30.0972Z" fill="#FDFDFD"/>
</svg>
