<svg width="48" height="48" viewBox="0 0 48 48" fill="none" xmlns="http://www.w3.org/2000/svg">
<path d="M17.4549 0H30.9876C36.1429 0 40.396 1.55676 43.3603 4.67027C46.4535 7.78378 48.0001 11.9351 48.0001 17.1243V30.8757C48.0001 36.0649 46.4535 40.3459 43.3603 43.3297C40.2671 46.4432 36.1429 48 30.9876 48H17.4549C12.1707 48 8.04643 46.4432 5.08213 43.3297C1.98894 40.2162 0.442383 36.0649 0.442383 30.8757V17.1243C0.442383 11.8054 1.98894 7.65405 5.08213 4.67027C8.04643 1.55676 12.1707 0 17.4549 0Z" fill="#00CFE3"/>
<path d="M38.8494 23.6108C38.8494 23.6108 38.8494 23.481 38.8494 23.6108C38.8494 23.481 38.8494 23.481 38.8494 23.481V23.3513V23.2216C38.8494 23.2216 38.8494 23.2216 38.8494 23.0918C38.8494 23.0918 38.8494 23.0918 38.8494 22.9621C38.8494 22.9621 38.8494 22.9621 38.8494 22.8324C38.8494 22.8324 38.8494 22.8324 38.8494 22.7027C38.7205 22.4432 38.4627 22.1837 38.3338 21.7945C38.2049 21.2756 38.3339 20.627 38.205 20.1081C38.205 20.1081 38.205 20.1081 38.205 19.9783V19.8486V19.7189C38.205 19.7189 38.205 19.7189 38.205 19.5891C38.205 19.5891 38.205 19.5891 38.0761 19.4594C38.0761 19.4594 38.0761 19.4594 37.9472 19.4594C37.6894 19.2 37.4317 18.9405 37.1739 18.681C36.9162 18.2918 36.7873 17.9027 36.6584 17.3837V17.254C36.6584 17.254 36.6584 17.254 36.6584 17.1243C36.6584 17.1243 36.6584 17.1243 36.6584 16.9946C36.6584 16.9946 36.6584 16.8648 36.5295 16.8648C36.5295 16.8648 36.5295 16.8648 36.4006 16.7351C36.4006 16.7351 36.4006 16.7351 36.2717 16.7351C36.2717 16.7351 36.2718 16.7351 36.1429 16.7351C35.7562 16.4756 35.1118 16.3459 34.8541 15.9567C34.5963 15.6973 34.3385 15.4378 34.2097 15.1783C34.2097 15.1783 34.2097 15.1783 34.2097 15.0486C34.2097 15.0486 34.2097 15.0486 34.2097 14.9189C34.2097 14.9189 34.2097 14.9189 34.2097 14.7891C34.2097 14.7891 34.2097 14.7891 34.2097 14.6594C34.2097 14.6594 34.2096 14.6594 34.0807 14.6594C34.0807 14.6594 33.9519 14.6594 33.9519 14.5297C33.9519 14.5297 33.8229 14.5297 33.8229 14.4C33.8229 14.4 33.823 14.4 33.6941 14.4C33.6941 14.4 33.6941 14.4 33.5652 14.4C33.5652 14.4 33.5652 14.4 33.4363 14.4C33.4363 14.4 33.4363 14.4 33.3075 14.4H33.1785H33.0497H32.9208C32.6631 14.4 32.4052 14.2702 32.1475 14.1405C31.8897 14.0108 31.632 13.881 31.632 13.7513C30.9876 13.6216 31.2453 13.4918 31.1164 13.3621C31.1164 13.3621 30.9876 13.3621 30.9876 13.2324C30.9876 13.2324 30.8587 13.2324 30.8587 13.1027H30.7298H30.6009H30.472H30.3432C30.3432 13.1027 30.3431 13.1027 30.2142 13.1027C30.2142 13.1027 30.2143 13.1027 30.0854 13.1027C30.0854 13.1027 30.0853 13.1027 29.9565 13.1027C29.9565 13.1027 29.9565 13.1027 29.8276 13.1027C29.8276 13.1027 29.8276 13.1027 29.6988 13.1027C29.6988 13.1027 29.6987 13.1027 29.5698 13.1027C29.5698 13.1027 29.5699 13.1027 29.441 13.1027C29.441 13.1027 29.4409 13.1027 29.3121 13.1027C29.1832 13.1027 29.1832 13.1027 29.0543 13.1027C28.6677 13.1027 28.4099 13.2324 28.1522 13.1027C27.6366 12.9729 27.1211 12.7135 26.6055 12.5837H26.4767C26.4767 12.5837 26.4767 12.5837 26.3478 12.5837C26.3478 12.5837 26.3478 12.5837 26.2189 12.5837H26.09H25.9611C25.9611 12.5837 25.9612 12.5837 25.8323 12.5837C25.8323 12.5837 25.8322 12.5837 25.7034 12.5837C25.7034 12.5837 25.7034 12.5837 25.5745 12.5837C25.5745 12.5837 25.5745 12.5837 25.4456 12.5837C25.4456 12.5837 25.4456 12.5837 25.3167 12.5837C25.3167 12.5837 25.3168 12.5837 25.1879 12.5837C25.1879 12.5837 25.1878 12.5837 25.0589 12.5837C24.9301 12.5837 24.93 12.5837 24.8012 12.7135C24.5434 12.8432 24.1568 12.9729 23.899 12.9729C23.5124 12.9729 23.2546 12.9729 22.8679 12.9729C22.8679 12.9729 22.868 12.9729 22.7391 12.9729C22.7391 12.9729 22.7391 12.9729 22.6102 12.9729C22.6102 12.9729 22.6102 12.9729 22.4813 12.9729C22.4813 12.9729 22.4813 12.9729 22.3524 12.9729C22.3524 12.9729 22.3524 12.9729 22.2235 12.9729C22.2235 12.9729 22.2235 12.9729 22.0947 12.9729C22.0947 12.9729 22.0947 12.9729 21.9658 12.9729C21.9658 12.9729 21.9658 12.9729 21.8369 12.9729H21.708H21.5791H21.4502C21.4502 12.9729 21.3214 12.9729 21.3214 13.1027C21.3214 13.1027 21.3213 13.1027 21.1925 13.1027C20.9347 13.2324 20.8058 13.4918 20.5481 13.6216C20.5481 13.7513 20.1615 13.881 20.0326 13.881C19.6459 14.0108 19.2592 14.0108 18.8726 14.1405C18.8726 14.1405 18.8726 14.1405 18.7437 14.1405C18.7437 14.1405 18.7437 14.1405 18.6148 14.1405C18.6148 14.1405 18.6148 14.1405 18.486 14.1405C18.486 14.1405 18.4859 14.1405 18.357 14.1405C18.357 14.1405 18.3571 14.1405 18.2282 14.1405C18.2282 14.1405 18.2282 14.1405 18.0993 14.1405C18.0993 14.1405 18.0993 14.1405 17.9704 14.1405C17.9704 14.1405 17.9704 14.1405 17.8416 14.1405H17.7126C17.7126 14.1405 17.5838 14.1405 17.5838 14.2702C17.5838 14.2702 17.5838 14.2702 17.4549 14.4C17.4549 14.4 17.4549 14.4 17.326 14.5297C17.326 14.5297 17.326 14.6594 17.1971 14.6594C17.1971 14.6594 17.1971 14.6594 17.1971 14.7891C17.1971 14.7891 17.1971 14.7891 17.1971 14.9189C17.0683 15.0486 16.9394 15.1783 16.9394 15.1783C16.8105 15.4378 16.6816 15.5675 16.4238 15.6973C16.0371 15.9567 15.5216 16.2162 15.135 16.4756C15.135 16.4756 15.0061 16.4756 15.0061 16.6054L14.8773 16.7351L14.7483 16.8648C14.7483 16.8648 14.7484 16.9946 14.6195 16.9946C14.6195 16.9946 14.6195 16.9946 14.6195 17.1243C14.6195 17.1243 14.6195 17.1243 14.6195 17.254C14.6195 17.254 14.6195 17.254 14.6195 17.3837C14.6195 17.3837 14.6195 17.3837 14.6195 17.5135C14.6195 17.6432 14.4906 17.7729 14.4906 17.9027C14.2328 18.1621 14.2328 18.4216 14.1039 18.681C13.8462 19.0702 13.2018 19.4594 12.944 19.8486L12.8151 19.9783L12.6863 20.1081V20.2378C12.6863 20.2378 12.6863 20.2378 12.6863 20.3675V20.4973C12.6863 20.627 12.6863 20.627 12.6863 20.7567V20.8864V21.0162V21.1459C12.6863 21.4054 12.6862 21.6648 12.5573 21.9243C12.4284 22.4432 12.0418 22.8324 11.7841 23.3513C11.7841 23.3513 11.7841 23.3513 11.7841 23.481C11.7841 23.481 11.7841 23.481 11.7841 23.6108V23.7405V23.8702C11.7841 23.8702 11.7841 23.8702 11.7841 24C11.7841 24 11.7841 24 11.7841 24.1297C11.7841 24.1297 11.7841 24.1297 11.7841 24.2594C11.7841 24.2594 11.7841 24.2594 11.7841 24.3891C11.7841 24.3891 11.7841 24.3891 11.7841 24.5189C11.7841 24.6486 11.9129 24.7783 11.9129 24.9081C12.0418 25.1675 12.0418 25.427 12.0418 25.6864C12.0418 25.6864 11.9129 25.8162 11.9129 25.9459C11.9129 25.9459 11.9129 25.9459 11.9129 26.0756C11.9129 26.0756 11.9129 26.0756 11.9129 26.2054C11.9129 26.2054 11.9129 26.2054 11.9129 26.3351V26.4648C11.9129 26.4648 11.9129 26.4648 11.9129 26.5946V26.7243C11.9129 26.7243 11.913 26.7243 12.0418 26.854C12.0418 26.854 12.0418 26.9837 12.1707 26.9837L12.2996 27.1135C12.4285 27.2432 13.0729 27.6324 13.8461 28.1513C14.6194 28.6702 15.3928 29.1891 16.5527 29.9675C17.8416 30.8756 19.2593 31.9135 20.677 33.081C20.677 33.2108 20.5481 33.3405 20.5481 33.4702V33.6V33.7297V33.8594C20.2903 34.7675 20.1614 35.6756 20.5481 36.454C21.3213 38.0108 23.7701 36.8432 25.5745 36.8432C25.8323 36.9729 26.09 36.9729 26.3478 36.8432C26.6055 36.9729 26.8633 36.8432 27.1211 36.8432C28.9255 36.8432 31.3742 38.1405 32.1475 36.454C32.663 35.2864 32.2763 33.7297 31.8897 32.8216C35.3695 30.0973 39.6227 27.3729 40.1382 26.9837L40.2671 26.854C40.2671 26.854 40.2671 26.854 40.396 26.7243C40.396 26.7243 40.396 26.7243 40.396 26.5946C40.396 26.5946 40.396 26.5946 40.396 26.4648C40.396 26.4648 40.396 26.4648 40.396 26.3351C40.396 26.3351 40.396 26.3351 40.396 26.2054C40.396 26.2054 40.396 26.2054 40.396 26.0756C40.396 26.0756 40.396 26.0756 40.396 25.9459C40.396 25.8162 40.396 25.6864 40.396 25.5567C38.5916 24.6486 38.8494 24.1297 38.8494 23.6108Z" fill="#FDFDFD"/>
</svg>
