<svg width="48" height="48" viewBox="0 0 48 48" fill="none" xmlns="http://www.w3.org/2000/svg">
<path d="M17.2 0H30.7327C35.888 0 40.1411 1.55676 43.1054 4.67027C46.1985 7.78378 47.7452 11.9351 47.7452 17.1243V30.8757C47.7452 36.0649 46.1985 40.3459 43.1054 43.3297C40.0122 46.4432 35.888 48 30.7327 48H17.2C11.9158 48 7.79154 46.4432 4.82724 43.3297C1.73406 40.2162 0.1875 36.0649 0.1875 30.8757V17.1243C0.1875 11.8054 1.73406 7.65405 4.82724 4.67027C7.79154 1.55676 11.9158 0 17.2 0Z" fill="#FFDE51"/>
<path d="M25.0617 27.7621C24.1596 26.335 22.7419 25.1675 21.0664 24.3891C20.0354 23.8702 19.0043 23.6107 17.8444 23.481C17.5866 23.3513 17.2 23.0918 16.5555 23.0918C15.7823 23.0918 15.3956 23.3513 15.1378 23.481C13.9779 23.6107 12.9468 23.9999 11.9157 24.3891C8.5648 26.0756 6.63159 29.1891 6.63159 32.8215C6.63159 35.4161 7.66263 37.6215 9.59587 39.1783C11.4002 40.4756 13.7201 41.254 16.5555 41.254C19.391 41.254 21.7108 40.6053 23.5151 39.1783C25.4484 37.7513 26.4795 35.5458 26.4795 32.8215C26.6084 31.0053 26.0928 29.1891 25.0617 27.7621ZM15.5245 24.7783C15.6534 24.7783 15.7823 24.6486 15.9111 24.6486C16.04 24.5188 16.2978 24.3891 16.6844 24.3891C16.9422 24.3891 17.1999 24.5188 17.3288 24.6486C17.4577 24.6486 17.5866 24.7783 17.7154 24.7783C18.4887 24.908 19.262 25.0377 19.9065 25.2972C19.262 26.2053 17.9733 26.854 16.5555 26.854C15.1378 26.854 13.9779 26.335 13.3335 25.4269C13.9779 25.1675 14.7512 24.908 15.5245 24.7783ZM16.6844 39.8269C12.5602 39.8269 8.1782 38.0107 8.1782 32.8215C8.1782 29.9675 9.5959 27.3729 12.0447 25.9459C12.9468 27.2431 14.6223 28.1513 16.5555 28.1513C18.4888 28.1513 20.2931 27.2431 21.1953 25.8161C23.7729 27.2431 25.3195 29.8377 25.3195 32.8215C25.1906 38.0107 20.8086 39.8269 16.6844 39.8269Z" fill="#FDFDFD"/>
<path d="M38.7235 9.47021C37.4347 8.17292 35.7592 7.26481 33.9548 6.87562C32.2793 6.48643 30.475 6.74589 28.7995 7.26481C27.7685 7.654 26.8663 8.17292 25.9641 8.9513C25.7063 9.08103 25.1908 9.21076 24.8041 9.59994C24.2886 10.1189 24.1597 10.6378 24.0308 10.8972C23.3864 11.8053 22.742 12.8432 22.4842 13.881C21.3243 17.3837 22.0976 21.0162 24.6753 23.6108C26.2219 25.1675 28.1551 26.0756 30.0883 26.0756C30.475 26.0756 30.8616 26.0756 31.1194 25.9459C33.3104 25.6864 35.5014 24.3891 37.4347 22.4432C39.3679 20.4972 40.6567 18.2918 40.9144 16.0864C41.4299 13.6216 40.6567 11.2864 38.7235 9.47021ZM25.1908 11.6756C25.3197 11.5459 25.3197 11.4162 25.3197 11.2864C25.3197 11.1567 25.4485 10.8972 25.7063 10.6378C25.9641 10.3783 26.2218 10.3783 26.3507 10.2486C26.4796 10.2486 26.6085 10.1189 26.7373 10.1189C27.3818 9.59994 28.0262 9.21076 28.6706 8.9513C28.7995 9.98913 28.4128 11.4162 27.3818 12.3243C26.3507 13.3621 25.1908 13.7513 24.0308 13.6216C24.2886 12.9729 24.6753 12.3243 25.1908 11.6756ZM36.5325 21.4054C33.5682 24.3891 29.1862 26.2054 25.5775 22.5729C23.5153 20.4972 22.742 17.6432 23.5153 14.9189C25.0619 15.1783 26.8662 14.6594 28.284 13.2324C29.7017 11.8053 30.3461 9.8594 29.9594 8.30265C32.7948 7.52427 35.7592 8.17292 37.8213 10.3783C41.43 14.0108 39.4968 18.5513 36.5325 21.4054Z" fill="#FDFDFD"/>
<path d="M16.04 37.3622C13.849 37.3622 12.0447 36.5838 11.1425 35.2865C10.8847 35.0271 10.4981 34.8973 10.2403 35.1568C9.98255 35.4163 9.8537 35.8055 10.1115 36.0649C11.2714 37.7514 13.4624 38.6595 16.1689 38.6595C16.5556 38.6595 16.8134 38.4001 16.8134 38.0109C16.8134 37.6217 16.4267 37.3622 16.04 37.3622Z" fill="#FDFDFD"/>
</svg>
