<svg width="49" height="48" viewBox="0 0 49 48" fill="none" xmlns="http://www.w3.org/2000/svg">
<path d="M17.7771 0H31.3098C36.4651 0 40.7182 1.55676 43.6825 4.67027C46.7757 7.78378 48.3223 11.9351 48.3223 17.1243V30.8757C48.3223 36.0649 46.7757 40.3459 43.6825 43.3297C40.5893 46.4432 36.4651 48 31.3098 48H17.7771C12.493 48 8.36871 46.4432 5.40441 43.3297C2.31123 40.2162 0.764648 36.0649 0.764648 30.8757V17.1243C0.764648 11.8054 2.31123 7.65405 5.40441 4.67027C8.49759 1.55676 12.6218 0 17.7771 0Z" fill="#223494"/>
<path d="M30.6655 11.0269C27.4434 9.72961 24.0925 9.47015 20.9993 10.2485C20.9993 10.2485 20.9993 10.2485 20.8704 10.2485C18.9372 9.47015 19.1949 8.17286 19.3238 8.04313C19.3238 7.9134 19.3238 7.78367 19.1949 7.65394C19.066 7.52421 18.9372 7.52421 18.8083 7.65394C15.0707 9.85934 15.1996 12.9729 15.1996 13.6215C14.5552 14.2702 13.9107 15.0485 13.2663 15.9566C11.7197 18.2918 11.5909 21.4053 13.0086 23.9999C13.1375 24.1296 13.2663 24.2593 13.3952 24.2593C13.9107 24.2593 17.3906 23.7404 20.8704 21.2756C21.6437 20.7566 22.417 20.108 23.0614 19.3296C23.1903 19.3296 23.3192 19.3296 23.448 19.3296C24.3502 19.3296 26.4123 19.0702 27.9589 17.2539C28.0878 17.1242 28.0878 16.9945 27.9589 16.8647C27.9589 16.735 27.7012 16.6053 27.5723 16.735C26.9279 16.735 25.8968 16.735 25.3813 16.3458C25.3813 16.3458 25.3813 16.2161 25.5102 16.2161C26.799 14.1404 27.8301 13.7512 28.3456 13.7512C29.1189 13.7512 29.6344 14.5296 29.8922 15.0485C30.6655 16.4756 30.6655 18.5512 30.0211 19.4593C29.8922 19.5891 29.8922 19.8485 30.0211 19.9783C30.1499 20.108 30.4077 20.2377 30.6655 20.108C31.4388 19.7188 31.9543 18.9404 32.341 18.2918C32.341 18.162 32.4698 18.0323 32.4698 17.9026C32.4698 17.7729 32.5987 17.3837 32.7276 17.3837C33.6298 17.1242 35.4341 20.2377 36.0785 21.6647C36.2074 21.9242 36.4652 22.0539 36.723 21.9242C36.9807 21.9242 37.1096 21.6647 37.1096 21.4053C36.9807 18.9404 35.9497 13.2323 30.6655 11.0269ZM18.6794 8.56205C18.8083 9.08096 19.0661 9.98907 20.0971 10.508C18.5505 11.0269 17.2617 11.8053 15.9729 12.8431C15.9729 11.935 16.4884 10.1188 18.6794 8.56205ZM27.1857 17.2539C26.1546 18.2918 24.8658 18.4215 24.0925 18.5512C24.608 18.0323 24.9946 17.3837 25.3813 16.8647C25.8968 16.9945 26.5412 17.1242 27.1857 17.2539ZM32.8565 16.6053C32.4698 16.735 32.3409 17.1242 32.0832 17.5134C32.0832 17.6431 31.9543 17.7729 31.9543 17.7729C31.6965 18.162 31.5676 18.4215 31.181 18.8107C31.5676 17.5134 31.3099 15.6972 30.6655 14.5296C30.1499 13.4918 29.3766 12.9729 28.6033 12.8431C27.4434 12.8431 26.2835 13.7512 25.1235 15.6972C23.9636 17.5134 22.6748 18.9404 21.3859 19.9783C22.1592 16.0864 18.6794 14.6593 18.6794 14.6593C18.5505 14.5296 18.2928 14.6593 18.1639 14.9188C18.035 15.0485 18.1639 15.308 18.4216 15.4377C18.5505 15.4377 21.9015 16.735 20.4837 20.7566C17.3906 22.962 14.2974 23.481 13.5241 23.6107C12.3642 21.2756 12.493 18.5512 13.7819 16.4756C16.2306 12.7134 20.226 10.6377 24.608 10.6377C26.4124 10.6377 28.3456 11.0269 30.2788 11.8053C34.4031 13.4918 35.8208 17.5134 36.2074 20.2377C35.563 18.5512 34.1453 16.2161 32.8565 16.6053Z" fill="#FDFDFD"/>
<path d="M16.875 17.5133C16.2306 17.1241 15.4573 17.3836 14.9418 17.9025C14.6841 18.162 14.684 18.5512 14.8129 18.8106C14.9418 19.1998 15.1996 19.4593 15.4573 19.589C15.7151 19.7187 15.9729 19.7187 16.1017 19.7187C16.6173 19.7187 17.0039 19.4593 17.2617 19.1998C17.5194 18.9403 17.5194 18.5512 17.3906 18.2917C17.3906 17.9025 17.1328 17.643 16.875 17.5133ZM16.7462 18.8106C16.4884 19.0701 16.1017 19.1998 15.7151 18.9403C15.5862 18.8106 15.4573 18.6809 15.4573 18.5512C15.4573 18.4214 15.4573 18.2917 15.5862 18.162C15.7151 18.0322 15.9729 17.9025 16.2306 17.9025C16.3595 17.9025 16.4884 17.9025 16.6173 18.0322C16.7461 18.162 16.875 18.2917 16.875 18.4214C16.875 18.5512 16.7462 18.6809 16.7462 18.8106Z" fill="#FDFDFD"/>
<path d="M35.563 23.7405C35.0475 23.7405 31.5676 24.2594 28.0878 26.7243C28.0878 26.7243 27.9589 26.7243 27.9589 26.854C27.1856 27.3729 26.4123 28.0216 25.7679 28.7999C25.1235 28.7999 22.6747 28.7999 20.8704 30.8756C20.7415 31.0053 20.7415 31.1351 20.8704 31.2648C20.8704 31.3945 21.1281 31.5243 21.257 31.3945C21.9014 31.3945 22.9325 31.3945 23.448 31.7837C23.448 31.7837 23.448 31.9135 23.3192 31.9135C22.0303 33.9891 21.1281 34.3783 20.4837 34.3783C19.7104 34.3783 19.1949 33.5999 18.9371 33.081C18.1638 31.654 18.1639 29.5783 18.8083 28.6702C18.9371 28.5405 18.9371 28.281 18.8083 28.1513C18.6794 28.0216 18.4216 27.8918 18.1639 28.0216C17.3906 28.4108 16.875 29.1891 16.4884 29.8378C16.4884 29.9675 16.3595 30.0972 16.3595 30.227C16.3595 30.3567 16.2306 30.7459 16.1017 30.7459C15.1995 31.0053 13.3952 27.8918 12.7508 26.4648C12.6219 26.2053 12.3641 26.0756 12.1064 26.2053C11.8486 26.2053 11.7197 26.4648 11.7197 26.7243C11.9775 29.0594 13.0085 34.8972 18.2927 37.1026C20.226 37.881 22.2881 38.2702 24.2213 38.2702C25.5102 38.2702 26.6701 38.1405 27.83 37.7513C27.83 37.7513 27.83 37.7513 27.9589 37.7513C29.8922 38.5297 29.6344 39.827 29.5055 39.9567C29.5055 40.0864 29.5055 40.2162 29.6344 40.3459C29.6344 40.3459 29.7633 40.4756 29.8922 40.4756H30.021C33.7586 38.2702 33.6298 35.1567 33.6298 34.508C34.2742 33.8594 35.0475 33.081 35.563 32.1729C37.1096 29.8378 37.2385 26.7243 35.8208 24.1297C35.9496 23.8702 35.8208 23.7405 35.563 23.7405ZM22.0303 30.7459C23.0614 29.708 24.3502 29.5783 25.1235 29.4486C24.608 29.9675 24.2213 30.6162 23.8347 31.1351C23.3191 30.8756 22.5459 30.7459 22.0303 30.7459ZM30.4077 39.308C30.2788 38.7891 30.021 37.881 28.99 37.3621C30.5366 36.8432 31.9543 36.0648 33.1142 35.027C33.1142 35.9351 32.7276 37.7513 30.4077 39.308ZM35.1763 31.654C31.5676 37.1026 24.9946 38.9189 18.6794 36.3243C14.5551 34.6378 13.1374 30.4864 12.7508 27.8918C13.5241 29.4486 14.9418 31.654 16.2306 31.3945C16.6173 31.2648 16.7461 30.8756 17.0039 30.4864C17.0039 30.3567 17.1328 30.227 17.1328 30.227C17.3906 29.8378 17.5194 29.5783 17.9061 29.1891C17.5194 30.4864 17.7772 32.3026 18.4216 33.4702C18.9371 34.508 19.7104 35.027 20.4837 35.1567C21.6437 35.1567 22.8036 34.2486 23.9636 32.3026C25.1235 30.4864 26.4123 29.0594 27.7012 28.0216C26.9279 31.9135 30.4077 33.3405 30.4077 33.3405H30.5366C30.6654 33.3405 30.7943 33.2108 30.9232 33.081C31.0521 32.9513 30.9232 32.6918 30.6655 32.5621C30.5366 32.5621 27.1856 31.1351 28.6033 27.2432C31.6965 25.0378 34.7897 24.5189 35.563 24.3891C36.7229 26.854 36.5941 29.5783 35.1763 31.654Z" fill="#FDFDFD"/>
<path d="M33.7586 28.2809C33.1142 27.8917 32.3409 28.1512 31.8253 28.6701C31.5676 28.9295 31.5676 29.3187 31.6965 29.5782C31.8254 29.9674 32.0831 30.2268 32.3409 30.3566C32.5987 30.4863 32.8564 30.4863 32.9853 30.4863C33.5008 30.4863 33.8875 30.2268 34.1452 29.9674C34.403 29.7079 34.403 29.3187 34.2741 29.0593C34.2741 28.7998 34.0164 28.5404 33.7586 28.2809ZM33.6297 29.7079C33.372 29.9674 32.9853 30.0971 32.5987 29.8377C32.4698 29.7079 32.3409 29.5782 32.3409 29.4485C32.3409 29.3187 32.3409 29.189 32.4698 29.0593C32.5986 28.9295 32.8564 28.7998 33.1142 28.7998C33.2431 28.7998 33.372 28.7998 33.5008 28.9295C33.6297 29.0593 33.7586 29.189 33.7586 29.3187C33.7586 29.4485 33.6297 29.5782 33.6297 29.7079Z" fill="#FDFDFD"/>
</svg>
