<svg width="49" height="48" viewBox="0 0 49 48" fill="none" xmlns="http://www.w3.org/2000/svg">
<path d="M17.7967 0H31.3293C36.4846 0 40.7377 1.55676 43.702 4.67027C46.7952 7.78378 48.3417 11.9351 48.3417 17.1243V30.8757C48.3417 36.0649 46.7952 40.3459 43.702 43.3297C40.6088 46.4432 36.4846 48 31.3293 48H17.7967C12.5125 48 8.38824 46.4432 5.42395 43.3297C2.33077 40.2162 0.78418 36.0649 0.78418 30.8757V17.1243C0.78418 11.8054 2.33077 7.65405 5.42395 4.67027C8.51713 1.55676 12.6414 0 17.7967 0Z" fill="#D75A54"/>
<path d="M16.2501 15.9567C10.966 23.2216 11.3526 28.1513 14.5747 31.9135C14.7036 31.1351 15.0902 30.7459 15.4768 30.3567C15.7346 30.0972 15.9924 29.9675 16.379 29.8378C18.1834 29.0594 17.7967 27.1135 17.7967 27.1135C17.7967 26.9837 17.7967 26.854 17.9256 26.854C18.0545 26.854 18.1834 26.854 18.1834 26.9837C18.1834 26.9837 18.4411 29.3189 16.379 30.0972C15.7346 30.3567 14.9613 31.0053 14.9613 32.1729C15.3479 32.5621 15.7346 32.9513 16.2501 33.3405L31.9738 11.9351C27.9784 10.2486 20.2455 10.8972 16.2501 15.9567ZM19.0855 17.3837C19.3433 17.1243 19.601 16.9945 19.9877 16.8648C21.792 16.0864 21.4054 14.1405 21.4054 14.1405C21.4054 14.0108 21.4054 13.881 21.5343 13.881C21.6632 13.881 21.7921 13.881 21.7921 14.0108C21.7921 14.0108 22.0498 16.3459 19.9877 17.1243C19.3433 17.3837 18.4411 18.1621 18.57 19.5891C18.57 19.7189 18.4411 19.8486 18.4411 19.8486H18.3122L18.1834 19.7189C18.0545 18.5513 18.57 17.7729 19.0855 17.3837ZM15.7346 17.9026C15.9924 17.6432 16.2501 17.5135 16.6368 17.3837C18.4411 16.6054 18.0545 14.6594 18.0545 14.6594C18.0545 14.5297 18.0545 14.3999 18.1834 14.3999C18.3122 14.3999 18.4411 14.3999 18.4411 14.5297C18.4411 14.5297 18.6989 16.8648 16.6368 17.6432C15.9924 17.9026 15.0902 18.681 15.2191 20.1081C15.2191 20.2378 15.0902 20.3675 15.0902 20.3675H14.9613L14.8324 20.2378C14.7035 19.0702 15.348 18.2918 15.7346 17.9026ZM13.6725 30.4864C13.6725 30.3567 13.5436 30.227 13.5436 30.227C14.4458 29.3189 14.3169 28.0216 14.3169 27.8918C14.3169 27.7621 14.3169 27.6324 14.4458 27.6324C14.5747 27.6324 14.7036 27.6324 14.7036 27.7621C14.5747 27.8918 14.7035 29.4486 13.6725 30.4864ZM14.5747 24.5189C13.9303 24.7783 13.0281 25.5567 13.157 26.9837C13.157 27.1135 13.0281 27.2432 13.0281 27.2432H12.8992L12.7703 27.1135C12.6414 25.9459 13.157 25.1675 13.6725 24.7783C13.9302 24.5189 14.188 24.3891 14.5747 24.2594C16.379 23.481 15.9924 21.5351 15.9924 21.5351C15.9924 21.4054 15.9924 21.2756 16.1212 21.2756C16.2501 21.2756 16.379 21.2756 16.379 21.4054C16.379 21.4054 16.6368 23.7405 14.5747 24.5189ZM18.1834 23.6108C17.5389 23.8702 16.6368 24.6486 16.7656 26.0756C16.7656 26.2054 16.6368 26.3351 16.6368 26.3351H16.5079L16.379 26.2054C16.2501 25.0378 16.7657 24.2594 17.2812 23.8702C17.539 23.6108 17.7967 23.481 18.1834 23.3513C19.9877 22.5729 19.6011 20.627 19.6011 20.627C19.6011 20.4972 19.6011 20.3675 19.73 20.3675C19.8588 20.3675 19.9877 20.3675 19.9877 20.4972C19.9877 20.4972 20.2455 22.8324 18.1834 23.6108ZM21.7921 22.7026C21.1477 22.9621 20.2455 23.7405 20.3744 25.1675C20.3744 25.2972 20.2455 25.427 20.2455 25.427H20.1166L19.9877 25.2972C19.8588 24.1297 20.3744 23.3513 20.8899 22.9621C21.1476 22.7026 21.4054 22.5729 21.7921 22.4432C23.5964 21.6648 23.2097 19.7189 23.2097 19.7189C23.2097 19.5891 23.2098 19.4594 23.3386 19.4594C23.4675 19.4594 23.5964 19.4594 23.5964 19.5891C23.5964 19.5891 23.8542 22.054 21.7921 22.7026ZM23.5964 16.3459C22.952 16.6054 22.0498 17.3837 22.1787 18.8108C22.1787 18.9405 22.0498 19.0702 22.0498 19.0702H21.9209L21.7921 18.9405C21.6632 17.7729 22.1787 16.9945 22.6942 16.6054C22.952 16.3459 23.2098 16.2162 23.5964 16.0864C25.4008 15.3081 25.0141 13.3621 25.0141 13.3621C25.0141 13.2324 25.0141 13.1026 25.143 13.1026C25.2719 13.1026 25.4008 13.1026 25.4008 13.2324C25.2719 13.2324 25.6585 15.5675 23.5964 16.3459ZM27.2051 15.4378C26.5607 15.6972 25.6585 16.4756 25.7874 17.9026C25.7874 18.0324 25.6585 18.1621 25.6585 18.1621H25.5296L25.4008 18.0324C25.2719 16.8648 25.7874 16.0864 26.3029 15.6972C26.5607 15.4378 26.8185 15.3081 27.2051 15.1783C29.0094 14.3999 28.6228 12.454 28.6228 12.454C28.6228 12.3243 28.6228 12.1945 28.7517 12.1945C28.8806 12.1945 29.0094 12.1945 29.0094 12.3243C28.8806 12.3243 29.2672 14.6594 27.2051 15.4378Z" fill="#FDFDFD"/>
<path d="M18.3121 35.027C18.6988 35.2864 19.2143 35.5459 19.601 35.8054C20.7609 35.4162 21.1475 34.5081 21.2764 33.8594C21.4053 31.654 23.7252 31.2648 23.7252 31.2648C23.8541 31.2648 23.983 31.2648 23.983 31.3946C23.983 31.5243 23.983 31.654 23.8541 31.654C23.7252 31.654 21.9209 31.9135 21.6631 33.8594C21.6631 34.2486 21.5342 34.5081 21.4053 34.7675C21.2764 35.1567 20.8898 35.6756 20.2454 36.0648C20.7609 36.3243 21.2765 36.454 21.792 36.5837C22.4364 35.1567 23.983 34.8973 23.983 34.8973C24.1119 34.8973 24.2407 34.8973 24.2407 35.027C24.2407 35.1567 24.2407 35.2864 24.1119 35.2864C23.983 35.2864 22.6941 35.5459 22.1786 36.7135C26.3029 37.6216 30.6849 35.9351 35.0669 29.8378C38.6756 24.5189 36.8713 16.8648 34.0358 13.6216L18.3121 35.027ZM24.6274 28.8C24.4985 28.8 24.4985 28.6702 24.6274 28.8C24.4985 28.5405 24.6274 28.4108 24.7563 28.4108C26.174 28.1513 26.5606 27.1135 26.6895 26.3351C26.8184 24.1297 29.1383 23.7405 29.1383 23.7405C29.2672 23.7405 29.3961 23.7405 29.3961 23.8702C29.3961 24 29.3961 24.1297 29.2672 24.1297C29.1383 24.1297 27.3339 24.3891 27.0761 26.3351C27.0761 26.7243 26.9473 26.9837 26.8184 27.2432C26.5606 27.8919 26.0451 28.5405 24.8852 28.8C24.6274 28.8 24.6274 28.8 24.6274 28.8ZM24.8852 32.5621C24.7563 32.4324 24.7563 32.4324 24.8852 32.5621C24.7563 32.3027 24.8852 32.1729 25.0141 32.1729C26.4318 31.9135 26.8184 30.8756 26.9473 30.0973C27.0762 27.8919 29.3961 27.5027 29.3961 27.5027C29.5249 27.5027 29.6538 27.5027 29.6538 27.6324C29.6538 27.7621 29.6538 27.8919 29.525 27.8919C29.3961 27.8919 27.5917 28.1513 27.3339 30.0973C27.3339 30.4864 27.205 30.7459 27.0761 31.0054C26.8184 31.654 26.3028 32.3027 25.1429 32.5621C24.8851 32.5621 24.8852 32.5621 24.8852 32.5621ZM29.6538 31.5243C29.5249 31.5243 27.7206 31.7837 27.4628 33.7297C27.4628 34.1189 27.3339 34.3783 27.205 34.6378C26.9473 35.2864 26.4317 35.9351 25.2718 36.1946H25.1429L25.0141 36.0648C25.0141 35.9351 25.014 35.8054 25.1429 35.8054C26.5606 35.5459 26.9473 34.5081 27.0761 33.7297C27.205 31.5243 29.525 31.1351 29.525 31.1351C29.6538 31.1351 29.7827 31.1351 29.7827 31.2648C29.7827 31.3946 29.7827 31.5243 29.6538 31.5243ZM35.7113 27.2432C35.7113 27.3729 35.7113 27.5027 35.5824 27.5027C35.4535 27.5027 33.6492 27.7621 33.3914 29.7081C33.3914 30.0973 33.2625 30.3567 33.1337 30.6162C32.8759 31.2648 32.3604 31.9135 31.2004 32.1729H31.0715L30.9426 32.0432C30.9426 31.9135 30.9426 31.7837 31.0715 31.7837C32.4892 31.5243 32.8759 30.4864 33.0048 29.7081C33.1336 27.5027 35.4535 27.1135 35.4535 27.1135C35.5824 27.1135 35.5824 27.1135 35.7113 27.2432ZM35.1958 24C35.1958 24.1297 35.1958 24.2594 35.0669 24.2594C34.938 24.2594 33.1336 24.5189 32.8759 26.4648C32.8759 26.854 32.747 27.1135 32.6181 27.3729C32.3604 28.0216 31.8448 28.6702 30.6849 28.9297H30.556L30.4271 28.8C30.4271 28.6702 30.4271 28.5405 30.556 28.5405C31.9737 28.281 32.3604 27.2432 32.4892 26.4648C32.6181 24.2594 34.938 23.8702 34.938 23.8702C35.0669 23.8702 35.1958 23.8702 35.1958 24ZM34.938 20.2378C34.938 20.3675 34.938 20.4973 34.8091 20.4973C34.6802 20.4973 32.8759 20.7567 32.6181 22.7027C32.6181 23.0919 32.4892 23.3513 32.3603 23.6108C32.1026 24.2594 31.5871 24.9081 30.4271 25.1675H30.2982L30.1694 25.0378C30.1694 24.9081 30.1693 24.7783 30.2982 24.7783C31.7159 24.5189 32.1026 23.481 32.2315 22.7027C32.3603 20.4973 34.6803 20.1081 34.6803 20.1081C34.8091 20.1081 34.938 20.1081 34.938 20.2378ZM34.6803 16.6054C34.6803 16.7351 34.6803 16.8648 34.5514 16.8648C34.4225 16.8648 32.6181 17.1243 32.3603 19.0702C32.3603 19.4594 32.2315 19.7189 32.1026 19.9783C31.8448 20.627 31.3293 21.2756 30.1694 21.5351H30.0405L29.9116 21.4054C29.9116 21.2756 29.9116 21.1459 30.0405 21.1459C31.4582 20.8864 31.8448 19.8486 31.9737 19.0702C32.1026 16.8648 34.4225 16.4756 34.4225 16.4756C34.5514 16.3459 34.6803 16.4756 34.6803 16.6054Z" fill="#FDFDFD"/>
<path d="M33.2627 12.8432L33.1338 12.7135L33.0049 12.5837L17.2812 34.1189L17.4101 34.2486L17.539 34.3783L33.2627 12.8432Z" fill="#FDFDFD"/>
</svg>
