<svg width="48" height="48" viewBox="0 0 48 48" fill="none" xmlns="http://www.w3.org/2000/svg">
<path d="M17.0515 0H30.5842C35.7395 0 39.9926 1.55676 42.9569 4.67027C46.0501 7.78378 47.5967 11.9351 47.5967 17.1243V30.8757C47.5967 36.0649 46.0501 40.3459 42.9569 43.3297C39.8637 46.4432 35.7395 48 30.5842 48H17.0515C11.7673 48 7.64314 46.4432 4.67884 43.3297C1.58566 40.2162 0.0390625 36.0649 0.0390625 30.8757V17.1243C0.0390625 11.8054 1.58566 7.65405 4.67884 4.67027C7.77202 1.55676 11.8962 0 17.0515 0Z" fill="#44CC00"/>
<path d="M39.6059 16.6055C39.477 16.4758 39.3482 16.4758 39.0904 16.6055C35.8683 17.1244 33.5484 17.6433 30.713 18.5514C29.8109 19.4595 28.6509 20.3677 27.491 21.2758H27.3621L27.2332 21.146V21.0163C28.3932 20.1082 29.5531 19.0704 30.4553 18.292C30.7131 18.0325 30.9708 17.7731 31.2286 17.5136L31.3574 17.3839C32.1307 16.7352 32.7752 16.0866 33.4196 15.4379C35.6106 13.3622 37.6727 11.4163 39.9926 8.82171C39.7348 7.78387 39.2193 7.13522 38.5749 6.48657C35.8683 9.08117 33.4196 12.065 30.9708 14.919C30.4553 15.5677 29.9397 16.2163 29.2953 16.865C29.2953 16.865 29.2953 16.865 29.1665 16.865C28.2643 18.0325 27.3621 19.2001 26.4599 20.2379C26.4599 20.2379 26.4599 20.2379 26.331 20.2379C26.2021 20.1082 26.2021 20.1082 26.2021 19.9785C27.2332 18.8109 28.2643 17.5136 29.1665 16.346C30.7131 13.7514 32.0019 10.6379 33.2907 7.9136C32.1307 7.65414 30.9708 7.52441 29.8109 7.39468C28.6509 11.546 27.3621 15.6974 26.0733 19.719C25.9444 19.5893 25.8155 19.3298 25.5577 19.2001C20.1447 25.1677 14.4738 30.8758 8.67411 36.3244C8.28746 36.7136 7.90084 37.1028 7.77196 37.492C7.64307 37.7514 7.64307 38.1406 7.64307 38.4001V38.5298C7.64307 38.6595 7.64307 38.6595 7.64307 38.7893C7.64307 38.7893 7.64307 38.7893 7.64307 38.919C7.64307 39.0487 7.64307 39.0487 7.77196 39.1785V39.3082L7.90085 39.4379C7.90085 39.4379 7.90082 39.5677 8.0297 39.5677L8.15859 39.6974L8.28748 39.8271L8.41637 39.9568C8.9319 40.4758 9.7052 40.7352 10.4785 41.1244C11.5096 38.2704 13.7006 36.065 15.6338 33.9893L27.3621 21.9244L27.491 22.0541C27.6198 21.9244 27.8776 21.7947 28.0065 21.665L15.8915 34.119C13.9583 36.065 11.7673 38.4001 10.8651 41.1244C11.1229 41.2541 11.5096 41.3839 11.7673 41.1244C12.0251 40.9947 12.154 40.7352 12.2828 40.4758C12.5406 39.9568 12.7984 39.4379 13.0561 38.919C13.7006 37.8812 14.345 36.9731 14.9894 36.065C16.6649 33.7298 18.727 31.6541 20.7891 29.7082C23.3667 27.1136 25.9444 24.3893 28.522 21.7947C28.3932 21.665 28.2643 21.665 28.1354 21.5352C31.3574 19.4595 35.4817 18.6812 39.3482 19.3298C39.9926 18.6812 39.8637 17.6433 39.8637 16.6055C39.7348 16.7352 39.6059 16.6055 39.6059 16.6055ZM17.1804 31.9136C15.5049 33.4704 13.9583 35.1568 12.4117 36.8433C12.4117 36.9731 12.2828 36.9731 12.154 36.8433C12.0251 36.8433 12.0251 36.7136 12.154 36.5839C13.7005 34.8974 15.2472 33.2109 16.9226 31.6541C17.0515 31.6541 17.0515 31.6541 17.1804 31.6541C17.1804 31.7839 17.1804 31.7839 17.1804 31.9136Z" fill="white"/>
</svg>
